<svg width="750" height="500" xmlns="http://www.w3.org/2000/svg" xml:space="preserve" version="1.1">
 <defs>
  <linearGradient y2="-0.00015" x2="0.49988" y1="0.99983" x1="0.49988" id="SVGID_2_">
   <stop stop-color="#3BD4C3" offset="0"/>
   <stop stop-color="#187A93" offset="1"/>
  </linearGradient>
  <linearGradient y2="0.00001" x2="0.49996" y1="0.99985" x1="0.49996" id="SVGID_3_">
   <stop stop-color="#3BD4C3" offset="0"/>
   <stop stop-color="#187A93" offset="1"/>
  </linearGradient>
  <linearGradient y2="-0.00067" x2="0.49936" y1="0.99973" x1="0.49936" id="SVGID_4_">
   <stop stop-color="#3C3461" offset="0"/>
   <stop stop-color="#3A3A63" offset="0.1595"/>
   <stop stop-color="#354B69" offset="0.3704"/>
   <stop stop-color="#2D6672" offset="0.61"/>
   <stop stop-color="#228C7F" offset="0.8689"/>
   <stop stop-color="#1CA286" offset="1"/>
  </linearGradient>
  <linearGradient y2="0.00091" x2="0.49765" y1="1.00043" x1="0.49765" id="SVGID_6_">
   <stop stop-color="#1C548E" offset="0"/>
   <stop stop-color="#3CA773" offset="1"/>
  </linearGradient>
  <linearGradient y2="0.00054" x2="0.49761" y1="1.00005" x1="0.49761" id="SVGID_7_">
   <stop stop-color="#1C548E" offset="0"/>
   <stop stop-color="#3CA773" offset="1"/>
  </linearGradient>
  <linearGradient y2="-0.00142" x2="0.49998" y1="1.28791" x1="0.49998" id="SVGID_8_">
   <stop stop-color="#3C3461" offset="0"/>
   <stop stop-color="#3A3A63" offset="0.1595"/>
   <stop stop-color="#354B69" offset="0.3704"/>
   <stop stop-color="#2D6672" offset="0.61"/>
   <stop stop-color="#228C7F" offset="0.8689"/>
   <stop stop-color="#1CA286" offset="1"/>
  </linearGradient>
  <linearGradient y2="0.00003" x2="0.49829" y1="0.99975" x1="0.49829" id="SVGID_9_">
   <stop stop-color="#1C548E" offset="0"/>
   <stop stop-color="#3CA773" offset="1"/>
  </linearGradient>
  <linearGradient y2="0.00009" x2="0.49972" y1="1.00087" x1="0.49972" id="SVGID_10_">
   <stop stop-color="#1C548E" offset="0"/>
   <stop stop-color="#3CA773" offset="1"/>
  </linearGradient>
  <linearGradient y2="0.00051" x2="0.49743" y1="1" x1="0.49743" id="SVGID_11_">
   <stop stop-color="#3C778E" offset="0"/>
   <stop stop-color="#A9D99F" offset="1"/>
  </linearGradient>
  <linearGradient y2="-0.00025" x2="0.50007" y1="0.99998" x1="0.50007" id="SVGID_12_">
   <stop stop-color="#3C778E" offset="0"/>
   <stop stop-color="#A9D99F" offset="1"/>
  </linearGradient>
  <linearGradient y2="-0.00099" x2="0.49879" y1="0.99995" x1="0.49879" id="SVGID_13_">
   <stop stop-color="#3C778E" offset="0"/>
   <stop stop-color="#A9D99F" offset="1"/>
  </linearGradient>
  <linearGradient y2="0.00148" x2="0.9204" y1="1.07052" x1="0.07892" id="SVGID_14_">
   <stop stop-opacity="0" stop-color="#44757A" offset="0"/>
   <stop stop-color="#44757A" offset="1"/>
  </linearGradient>
  <linearGradient y2="-0.07894" x2="0.17614" y1="0.98661" x1="0.77073" id="SVGID_15_">
   <stop stop-opacity="0" stop-color="#44757A" offset="0"/>
   <stop stop-color="#44757A" offset="1"/>
  </linearGradient>
  <linearGradient y2="-0.07803" x2="0.17767" y1="0.98752" x1="0.77094" id="SVGID_16_">
   <stop stop-opacity="0" stop-color="#44757A" offset="0"/>
   <stop stop-color="#44757A" offset="1"/>
  </linearGradient>
  <linearGradient y2="-0.08641" x2="0.18105" y1="0.99308" x1="0.76632" id="SVGID_17_">
   <stop stop-opacity="0" stop-color="#44757A" offset="0"/>
   <stop stop-color="#44757A" offset="1"/>
  </linearGradient>
  <linearGradient y2="-0.02895" x2="0.87744" y1="0.94324" x1="0.18149" id="SVGID_18_">
   <stop stop-opacity="0" stop-color="#44757A" offset="0"/>
   <stop stop-color="#44757A" offset="1"/>
  </linearGradient>
  <linearGradient y2="-0.02892" x2="0.87656" y1="0.94425" x1="0.1819" id="SVGID_19_">
   <stop stop-opacity="0" stop-color="#44757A" offset="0"/>
   <stop stop-color="#44757A" offset="1"/>
  </linearGradient>
  <linearGradient y2="-0.03439" x2="0.87123" y1="0.94753" x1="0.18785" id="SVGID_20_">
   <stop stop-opacity="0" stop-color="#44757A" offset="0"/>
   <stop stop-color="#44757A" offset="1"/>
  </linearGradient>
  <linearGradient y2="-0.0004" x2="0.49908" y1="1.5384" x1="0.49908" id="SVGID_21_">
   <stop stop-color="#1C548E" offset="0"/>
   <stop stop-color="#3CA773" offset="1"/>
  </linearGradient>
  <linearGradient y2="-0.00029" x2="0.49743" y1="0.99904" x1="0.49743" id="SVGID_22_">
   <stop stop-color="#3C778E" offset="0"/>
   <stop stop-color="#A9D99F" offset="1"/>
  </linearGradient>
  <linearGradient y2="0.00106" x2="0.49895" y1="0.99901" x1="0.49895" id="SVGID_23_">
   <stop stop-color="#1C548E" offset="0"/>
   <stop stop-color="#6DA77D" offset="1"/>
  </linearGradient>
  <linearGradient y2="0.00001" x2="0.50121" y1="0.99797" x1="0.50121" id="SVGID_24_">
   <stop stop-color="#1C548E" offset="0"/>
   <stop stop-color="#6DA77D" offset="1"/>
  </linearGradient>
  <linearGradient y2="0.00111" x2="0.49842" y1="1.00242" x1="0.49842" id="SVGID_25_">
   <stop stop-color="#3C778E" offset="0"/>
   <stop stop-color="#BDD98E" offset="1"/>
  </linearGradient>
  <linearGradient y2="0.00111" x2="0.49919" y1="1.00242" x1="0.49919" id="SVGID_26_">
   <stop stop-color="#3C778E" offset="0"/>
   <stop stop-color="#BDD98E" offset="1"/>
  </linearGradient>
  <linearGradient y2="0.00111" x2="0.49958" y1="1.00242" x1="0.49958" id="SVGID_27_">
   <stop stop-color="#3C778E" offset="0"/>
   <stop stop-color="#BDD98E" offset="1"/>
  </linearGradient>
  <linearGradient y2="-0.00033" x2="0.50025" y1="0.99894" x1="0.50025" id="SVGID_28_">
   <stop stop-opacity="0" stop-color="#44757A" offset="0"/>
   <stop stop-color="#44757A" offset="1"/>
  </linearGradient>
  <linearGradient y2="-0.00091" x2="0.50073" y1="0.99835" x1="0.50073" id="SVGID_29_">
   <stop stop-opacity="0" stop-color="#44757A" offset="0"/>
   <stop stop-color="#44757A" offset="1"/>
  </linearGradient>
  <linearGradient y2="0.00156" x2="0.49693" y1="1.00082" x1="0.49693" id="SVGID_30_">
   <stop stop-opacity="0" stop-color="#44757A" offset="0"/>
   <stop stop-color="#44757A" offset="1"/>
  </linearGradient>
  <linearGradient y2="-0.00033" x2="0.50158" y1="0.99894" x1="0.50158" id="SVGID_31_">
   <stop stop-opacity="0" stop-color="#44757A" offset="0"/>
   <stop stop-color="#44757A" offset="1"/>
  </linearGradient>
  <linearGradient y2="-0.00033" x2="0.49962" y1="0.99894" x1="0.49962" id="SVGID_32_">
   <stop stop-opacity="0" stop-color="#44757A" offset="0"/>
   <stop stop-color="#44757A" offset="1"/>
  </linearGradient>
  <linearGradient y2="1.17481" x2="0.95602" y1="-0.1124" x1="0.13488" id="SVGID_33_">
   <stop stop-color="#7EA596" offset="0"/>
   <stop stop-color="#4E8C95" offset="0.3857"/>
   <stop stop-color="#217493" offset="0.794"/>
   <stop stop-color="#0F6B93" offset="1"/>
  </linearGradient>
 </defs>
 <g>
  <title>Layer 1</title>
  <g id="svg_2" opacity="0.54" class="st1">
   <path id="svg_3" fill="url(#SVGID_2_)" d="m750,164.3c0,0 -43.6,-2.2 -59.6,33.8s-53.5,14.1 -58.7,56.7s-48.3,76.8 -48.3,76.8l166.6,0l0,-167.3z" class="st2"/>
   <circle id="svg_4" fill="#F3FCD0" r="66.8" cy="286" cx="507.9" class="st3"/>
   <path id="svg_5" fill="url(#SVGID_3_)" d="m0,143.8c0,0 70.5,-11.1 107.5,32.3s69,12 95.7,14s46.7,46.1 85.4,46.7c38.7,0.7 51.4,-34.7 82.8,-32s58.1,104.1 161.5,126.8l-532.9,0l0,-187.8z" class="st4"/>
   <path id="svg_6" fill="url(#SVGID_4_)" d="m750,272.4c-3,-2.1 -8.1,-0.8 -8.5,3.8c0,0.1 0,0.1 0,0.2c0,0.5 -0.2,1.2 -0.3,1.8c-3.7,-14.9 -12.6,-32 -13.3,-40c0,-0.1 0,-0.2 0,-0.3c-1.2,-11.7 -18.3,-11.7 -19.5,0c0,0.1 0,0.2 0,0.3c-0.5,6.4 -6.2,18.4 -10.4,30.5c-2.2,-5.8 -4.2,-10.9 -4.5,-14.1c0,-0.1 0,-0.2 0,-0.2c-0.9,-8.9 -13.9,-8.9 -14.8,0c0,0.1 0,0.2 0,0.2c-0.3,4 -3.3,10.9 -6.1,18.4c-1.7,-4.6 -3.2,-8.5 -3.4,-11.2c0,-0.1 0,-0.2 0,-0.2c-0.9,-8.9 -13.9,-8.9 -14.8,0c0,0.1 0,0.2 0,0.2c-0.3,3.2 -2.2,8.1 -4.3,13.7c-5.4,-15.2 -12.3,-30.1 -13,-38.1c0,-0.1 0,-0.3 0,-0.4c-1.5,-15.3 -23.9,-15.3 -25.4,0c0,0.1 0,0.3 0,0.4c-0.7,8 -7.4,22.6 -12.8,37.7c-2.2,-5.6 -4,-10.5 -4.2,-13.8c0,-0.1 0,-0.2 0,-0.3c-1,-10.3 -16.1,-10.3 -17.1,0c0,0.1 0,0.2 0,0.3c-0.6,6.7 -7.4,20.3 -11,32.8c-0.8,-2.3 -1.5,-4.3 -1.6,-5.8c0,-0.1 0,-0.1 0,-0.2c-0.6,-6.4 -10,-6.4 -10.7,0c0,0.1 0,0.1 0,0.2c-0.5,5.5 -7.7,18.3 -8.2,27.3c0,0 0,0 0,0l0,16l203.9,0l0,-59.2z" class="st5"/>
   <rect id="svg_7" fill="white" height="168.4" width="750" class="st6" y="331.6" x="0"/>
   <g id="svg_8">
    <path id="svg_9" fill="url(#SVGID_6_)" d="m656.5,277.2c0,-0.1 0,-0.3 0,-0.4c-1.4,-14.3 -22.3,-14.3 -23.8,0c0,0.1 0,0.3 0,0.4c-1.1,13 -19.5,44.9 -18.1,65c1.4,20 20,23 30.1,23c10,0 28.7,-3 30.1,-23c1.2,-20 -17.3,-52 -18.3,-65z" class="st7"/>
    <path id="svg_10" fill="#2F2833" d="m645.5,335.8c-0.1,-7.5 -0.2,-8.3 -0.3,-15c5.3,-0.3 10.3,-2.7 13.8,-6.6l3,-3.3l-2.9,2.9c-3.7,3.7 -8.7,5.9 -13.9,6c-0.3,-13.6 -0.6,-30.9 -0.6,-30.9l-0.8,37.7c-5.2,-0.2 -10.1,-2.3 -13.8,-6l-2.9,-2.9l3,3.3c3.6,3.9 8.5,6.2 13.7,6.6l-0.3,15c-5.1,-0.3 -9.9,-2.4 -13.5,-6l-2.9,-2.9l3,3.3c3.5,3.8 8.3,6.1 13.4,6.6l-0.8,35.2l1.9,0l1.9,0c0,0 -0.5,-18.3 -0.9,-42c5.2,-0.4 10,-2.8 13.5,-6.6l3,-3.3l-2.9,2.9c-3.7,3.6 -8.6,5.7 -13.7,6z" class="st8"/>
   </g>
   <g id="svg_11">
    <path id="svg_12" fill="url(#SVGID_7_)" d="m705.8,299.3c0,-0.1 0,-0.3 0,-0.4c-1.4,-14.3 -22.3,-14.3 -23.8,0c0,0.1 0,0.3 0,0.4c-1.1,13 -19.5,44.9 -18.1,65c1.4,20 20,23 30.1,23c10,0 28.7,-3 30.1,-23c1.2,-20 -17.3,-52 -18.3,-65z" class="st9"/>
    <path id="svg_13" fill="#2F2833" d="m694.8,357.8c-0.1,-7.5 -0.2,-8.3 -0.3,-15c5.3,-0.3 10.3,-2.7 13.8,-6.6l3,-3.3l-2.9,2.9c-3.7,3.7 -8.7,5.9 -13.9,6c-0.3,-13.6 -0.6,-30.9 -0.6,-30.9l-0.8,37.7c-5.2,-0.2 -10.1,-2.3 -13.8,-6l-2.9,-2.9l3,3.3c3.6,3.9 8.5,6.2 13.7,6.6l-0.3,15c-5.1,-0.3 -9.9,-2.4 -13.5,-6l-2.9,-2.9l3,3.3c3.5,3.8 8.3,6.1 13.4,6.6l-0.8,35.2l1.9,0l1.9,0c0,0 -0.5,-18.3 -0.9,-42c5.2,-0.4 10,-2.8 13.5,-6.6l3,-3.3l-2.9,2.9c-3.7,3.7 -8.6,5.8 -13.7,6z" class="st8"/>
   </g>
   <path id="svg_14" fill="url(#SVGID_8_)" d="m0,331.6l302.8,0c-2.5,-11.8 -10,-26 -10.6,-32.6c0,-0.1 0,-0.2 0,-0.2c-0.9,-8.9 -14,-8.9 -14.8,0c0,0.1 0,0.2 0,0.2c-0.2,2.4 -1.4,5.9 -2.9,9.9c-4.3,-14.6 -12.2,-30.3 -12.8,-38.1c0,-0.1 0,-0.2 0,-0.3c-1.2,-12.2 -19.2,-12.2 -20.4,0c0,0.1 0,0.2 0,0.3c-0.7,8.1 -9.1,24.6 -13.3,39.7c-1.5,-4 -2.8,-7.5 -3,-9.8c0,-0.1 0,-0.1 0,-0.2c-0.8,-7.7 -12,-7.7 -12.8,0c0,0.1 0,0.1 0,0.2c-0.1,1.5 -0.7,3.5 -1.5,5.8c-4.8,-20.3 -17.1,-43.8 -18,-54.9c0,-0.1 0,-0.3 0,-0.4c-1.6,-15.6 -24.5,-15.6 -26,0c0,0.1 0,0.3 0,0.4c-0.7,8.3 -7.9,23.7 -13.4,39.5c-1,-3 -1.7,-5.6 -1.8,-7.6c0,-0.1 0,-0.2 0,-0.3c-1.2,-11.9 -18.7,-11.9 -19.9,0c0,0.1 0,0.2 0,0.3c-0.2,2.9 -1.5,7 -3.3,11.7c-6.4,-18 -14.5,-35.4 -15.2,-44.9c0,-0.2 0,-0.3 0,-0.5c-1.8,-18.3 -28.7,-18.3 -30.5,0c0,0.2 0,0.3 0,0.5c-0.8,9.6 -9,27.4 -15.5,45.6c-3.9,-10.2 -7.9,-19.5 -8.3,-25c0,-0.1 0,-0.2 0,-0.3c-1.2,-12.2 -19.2,-12.2 -20.4,0c0,0.1 0,0.2 0,0.3c-0.3,3.5 -2.1,8.7 -4.3,14.6c-6.5,-19.6 -16.1,-39.4 -16.9,-49.8c0,-0.2 0,-0.3 0,-0.5c-1,-9.6 -9,-14 -16.5,-13.3l0,109.7l-0.7,0z" class="st10"/>
   <g id="svg_15">
    <path id="svg_16" fill="url(#SVGID_9_)" d="m100,265.9c0,-0.2 0,-0.3 0,-0.5c-1.9,-19.3 -30.2,-19.3 -32.1,0c0,0.2 0,0.3 0,0.5c-1.5,17.6 -26.3,60.7 -24.5,87.8c1.8,27.1 27.1,31.1 40.6,31.1c13.5,0 38.8,-4 40.6,-31.1c1.7,-27.1 -23.2,-70.3 -24.6,-87.8z" class="st11"/>
    <path id="svg_17" fill="#2F2833" d="m85.1,344.9c-0.2,-10.2 -0.2,-11.3 -0.4,-20.3c7.1,-0.5 13.9,-3.6 18.7,-8.9l4.1,-4.4l-4,4c-5,5 -11.8,7.9 -18.8,8.1c-0.4,-18.3 -0.8,-41.7 -0.8,-41.7l-1,50.9c-7,-0.3 -13.7,-3.1 -18.7,-8.1l-4,-4l4.1,4.4c4.8,5.2 11.4,8.4 18.5,8.9l-0.4,20.3c-6.9,-0.4 -13.3,-3.2 -18.2,-8.1l-4,-4l4.1,4.4c4.7,5.1 11.2,8.3 18.1,8.9l-1.1,47.5l2.6,0l2.6,0c0,0 -0.6,-24.8 -1.3,-56.7c7,-0.6 13.5,-3.7 18.3,-8.9l4.1,-4.4l-4,4c-5,5 -11.6,7.8 -18.5,8.1z" class="st8"/>
   </g>
   <g id="svg_18">
    <path id="svg_19" fill="url(#SVGID_10_)" d="m200.7,316c0,-0.1 0,-0.3 0,-0.4c-1.5,-15.5 -24.3,-15.5 -25.9,0c0,0.1 0,0.3 0,0.4c-1.2,14.1 -21.2,48.9 -19.7,70.7c1.5,21.8 21.8,25 32.7,25c10.9,0 31.2,-3.2 32.7,-25c1.5,-21.8 -18.6,-56.5 -19.8,-70.7z" class="st12"/>
    <path id="svg_20" fill="#2F2833" d="m188.8,379.7c-0.2,-8.2 -0.2,-9.1 -0.3,-16.4c5.8,-0.4 11.2,-2.9 15.1,-7.2l3.3,-3.6l-3.2,3.2c-4,4 -9.5,6.4 -15.2,6.5c-0.3,-14.7 -0.7,-33.6 -0.7,-33.6l-0.8,41c-5.6,-0.2 -11,-2.5 -15,-6.5l-3.2,-3.2l3.3,3.6c3.9,4.2 9.2,6.8 14.9,7.2l-0.3,16.4c-5.5,-0.3 -10.8,-2.6 -14.7,-6.5l-3.2,-3.2l3.3,3.6c3.8,4.1 9,6.7 14.6,7.2l-0.9,38.3l2.1,0l2.1,0c0,0 -0.5,-19.9 -1,-45.7c5.6,-0.4 10.9,-3 14.7,-7.2l3.3,-3.6l-3.2,3.2c-4.1,3.9 -9.4,6.3 -15,6.5z" class="st8"/>
   </g>
   <g id="svg_21">
    <path id="svg_22" fill="url(#SVGID_11_)" d="m614.9,307.6c0,-0.1 0,-0.2 0,-0.3c-1.1,-10.7 -16.8,-10.7 -17.8,0c0,0.1 0,0.2 0,0.3c-0.8,9.8 -14.6,33.7 -13.6,48.8c1,15 15,17.3 22.6,17.3c7.5,0 21.5,-2.2 22.6,-17.3c0.9,-15 -13,-39 -13.8,-48.8z" class="st13"/>
    <path id="svg_23" fill="#2F2833" d="m606.7,351.6c-0.1,-5.6 -0.1,-6.3 -0.2,-11.3c4,-0.3 7.7,-2 10.4,-5l2.3,-2.5l-2.2,2.2c-2.8,2.8 -6.5,4.4 -10.5,4.5c-0.2,-10.2 -0.5,-23.2 -0.5,-23.2l-0.6,28.3c-3.9,-0.1 -7.6,-1.7 -10.4,-4.5l-2.2,-2.2l2.3,2.5c2.7,2.9 6.4,4.7 10.3,5l-0.2,11.3c-3.8,-0.2 -7.4,-1.8 -10.1,-4.5l-2.2,-2.2l2.3,2.5c2.6,2.9 6.2,4.6 10.1,4.9l-0.6,26.4l1.4,0l1.4,0c0,0 -0.4,-13.8 -0.7,-31.5c3.9,-0.3 7.5,-2.1 10.2,-4.9l2.3,-2.5l-2.2,2.2c-2.9,2.7 -6.6,4.3 -10.4,4.5z" class="st8"/>
   </g>
   <g id="svg_24">
    <path id="svg_25" fill="url(#SVGID_12_)" d="m146.5,329.9c0,-0.1 0,-0.3 0,-0.4c-1.5,-15.5 -24.3,-15.5 -25.9,0c0,0.1 0,0.3 0,0.4c-1.2,14.2 -21.2,49 -19.8,70.8c1.5,21.8 21.8,25.1 32.7,25.1c10.9,0 31.3,-3.2 32.7,-25.1c1.5,-21.8 -18.5,-56.6 -19.7,-70.8z" class="st14"/>
    <path id="svg_26" fill="#2F2833" d="m134.5,393.7c-0.2,-8.2 -0.2,-9.1 -0.3,-16.4c5.8,-0.4 11.2,-2.9 15.1,-7.2l3.3,-3.6l-3.2,3.2c-4,4 -9.5,6.4 -15.2,6.6c-0.3,-14.8 -0.7,-33.7 -0.7,-33.7l-0.8,41.1c-5.7,-0.2 -11,-2.5 -15,-6.6l-3.2,-3.2l3.3,3.6c3.9,4.2 9.2,6.8 14.9,7.2l-0.3,16.4c-5.5,-0.3 -10.8,-2.6 -14.7,-6.5l-3.2,-3.2l3.3,3.6c3.8,4.1 9,6.7 14.6,7.2l-0.9,38.3l2.1,0l2.1,0c0,0 -0.5,-20 -1,-45.7c5.6,-0.4 10.9,-3 14.7,-7.2l3.3,-3.6l-3.2,3.2c-4.1,3.9 -9.4,6.2 -15,6.5z" class="st8"/>
   </g>
   <g id="svg_27">
    <path id="svg_28" fill="url(#SVGID_13_)" d="m263.1,376.7c0,-0.1 0,-0.2 0,-0.3c-1.2,-12.2 -19.2,-12.2 -20.4,0c0,0.1 0,0.2 0,0.3c-0.9,11.2 -16.8,38.6 -15.6,55.8c1.2,17.2 17.2,19.8 25.8,19.8c8.6,0 24.7,-2.6 25.8,-19.8c1.1,-17.2 -14.7,-44.7 -15.6,-55.8z" class="st15"/>
    <path id="svg_29" fill="#2F2833" d="m253.6,427c-0.1,-6.5 -0.1,-7.2 -0.3,-12.9c4.5,-0.3 8.8,-2.3 11.9,-5.7l2.6,-2.8l-2.5,2.5c-3.2,3.2 -7.5,5 -12,5.2c-0.2,-11.6 -0.5,-26.5 -0.5,-26.5l-0.6,32.4c-4.5,-0.2 -8.7,-2 -11.9,-5.2l-2.5,-2.5l2.6,2.8c3.1,3.3 7.3,5.4 11.8,5.7l-0.3,12.9c-4.4,-0.2 -8.5,-2.1 -11.6,-5.2l-2.5,-2.5l2.6,2.8c3,3.3 7.1,5.3 11.5,5.7l-0.7,30.2l1.6,0l1.6,0c0,0 -0.4,-15.8 -0.8,-36c4.4,-0.4 8.6,-2.4 11.6,-5.7l2.6,-2.8l-2.5,2.5c-3.1,3 -7.3,4.9 -11.7,5.1z" class="st8"/>
   </g>
   <polygon id="svg_30" fill="url(#SVGID_14_)" points="234.1,500 254.5,463.8 251.2,463.8 226.6,500  " class="st16"/>
   <polygon id="svg_31" fill="url(#SVGID_15_)" points="695.7,400.7 736.9,442 728.9,442 692,400.7  " class="st17"/>
   <polygon id="svg_32" fill="url(#SVGID_16_)" points="646.4,378.6 687.6,419.9 679.5,419.9 642.6,378.6  " class="st18"/>
   <polygon id="svg_33" fill="url(#SVGID_17_)" points="607.4,383.8 650.7,425 642.6,425 604.6,383.8  " class="st19"/>
   <polygon id="svg_34" fill="url(#SVGID_18_)" points="185.7,426.4 154.8,467.7 162.8,467.7 189.8,426.4  " class="st20"/>
   <polygon id="svg_35" fill="url(#SVGID_19_)" points="131.4,440.4 100.5,481.7 108.5,481.7 135.6,440.4  " class="st21"/>
   <polygon id="svg_36" fill="url(#SVGID_20_)" points="81.4,402.9 50.4,444.2 58.4,444.2 86.4,402.9  " class="st22"/>
   <g id="svg_37">
    <path id="svg_38" fill="url(#SVGID_21_)" d="m100.9,500c-5,-25.9 -22,-57.6 -23.2,-72c0,-0.2 0,-0.3 0,-0.5c-1.9,-19.3 -30.2,-19.3 -32.1,0c0,0.2 0,0.3 0,0.5c-1.2,14.4 -18.2,46.2 -23.2,72l78.5,0z" class="st23"/>
    <path id="svg_39" fill="#2F2833" d="m60.5,495.9l-0.1,4.1l2.2,0c-0.1,-4.5 -0.1,-6.9 -0.3,-13.3c7.1,-0.5 13.9,-3.6 18.7,-8.9l4.1,-4.4l-4,4c-5,5 -11.8,7.9 -18.8,8.1c-0.4,-18.3 -0.8,-41.7 -0.8,-41.7l-1,50.9c-7,-0.3 -13.7,-3.1 -18.7,-8.1l-4,-4l4.2,4.4c4.8,5.2 11.5,8.4 18.5,8.9z" class="st8"/>
   </g>
   <g id="svg_40">
    <path id="svg_41" fill="url(#SVGID_22_)" d="m750,413.8c-1.5,-4.2 -2.6,-7.9 -2.8,-10.6c0,-0.1 0,-0.2 0,-0.4c-1.3,-13.4 -21,-13.4 -22.3,0c0,0.1 0,0.2 0,0.4c-1,12.2 -18.3,42.2 -17,61.1c1.3,18.8 18.8,21.6 28.2,21.6c3.9,0 9.1,-0.5 14,-2.3l0,-69.8l-0.1,0z" class="st24"/>
    <path id="svg_42" fill="#2F2833" d="m750,452.4l0,-0.2l-0.3,0.3c-3.4,3.4 -8,5.4 -12.8,5.6c-0.1,-7.1 -0.2,-7.8 -0.3,-14.1c5,-0.3 9.6,-2.5 13,-6.2l0.4,-0.4l0,-0.2l-0.3,0.3c-3.5,3.5 -8.2,5.5 -13.1,5.7c-0.3,-12.7 -0.6,-29 -0.6,-29l-0.7,35.4c-4.9,-0.2 -9.5,-2.2 -13,-5.6l-2.8,-2.8l2.8,3.1c3.3,3.6 8,5.9 12.9,6.2l-0.3,14.1c-4.8,-0.2 -9.3,-2.2 -12.7,-5.6l-2.8,-2.8l2.8,3.1c3.3,3.6 7.8,5.8 12.6,6.2l-0.8,33l3.6,0c0,0 -0.4,-17.2 -0.9,-39.4c4.9,-0.4 9.4,-2.6 12.7,-6.2l0.6,-0.5z" class="st8"/>
   </g>
   <g id="svg_43">
    <path id="svg_44" fill="url(#SVGID_23_)" d="m371.1,333.8c-9.9,0.3 -17.5,8.9 -17.5,18.8l0,6.3c0,6.1 4.9,11 11,11l14.1,0c6.1,0 11,-4.9 11,-11l0,-7.1c-0.1,-10.1 -8.4,-18.3 -18.6,-18z" class="st25"/>
    <path id="svg_45" fill="#2F2833" d="m372.3,360.6c-0.1,-3.3 -0.1,-2.8 -0.2,-5.7c4,-0.2 7.8,-2.1 10.6,-3.8l2.3,-1.5l-2.2,1.3c-2.8,1.6 -6.6,2.6 -10.6,2.7c-0.2,-6 -0.5,-13.7 -0.5,-13.7l-0.6,16.7c-4,-0.1 -7.7,-1 -10.5,-2.7l-2.2,-1.3l2.3,1.5c2.7,1.7 6.5,3.7 10.5,3.8l-0.2,5.7c-3.9,-0.1 -7.5,-1.1 -10.3,-2.7l-2.2,-1.3l2.3,1.5c2.7,1.7 6.3,3.6 10.2,3.8l-0.2,8.2l2.1,0c-0.1,-2.6 -0.2,-8 -0.3,-11.2c3.9,-0.2 7.6,-2.1 10.3,-3.8l2.3,-1.5l-2.2,1.3c-3.1,1.6 -6.8,2.6 -10.7,2.7z" class="st8"/>
   </g>
   <g id="svg_46">
    <path id="svg_47" fill="url(#SVGID_24_)" d="m293.6,325.3c-9.9,0.3 -17.5,8.9 -17.5,18.8l0,6.3c0,6.1 4.9,11 11,11l14.1,0c6.1,0 11,-4.9 11,-11l0,-7.1c0,-10.1 -8.4,-18.3 -18.6,-18z" class="st26"/>
    <path id="svg_48" fill="#2F2833" d="m294.9,352.1c-0.1,-3.3 -0.1,-2.8 -0.2,-5.7c4,-0.2 7.8,-2.1 10.6,-3.8l2.3,-1.5l-2.2,1.3c-2.8,1.6 -6.6,2.6 -10.6,2.7c-0.2,-6 -0.5,-13.7 -0.5,-13.7l-0.6,16.7c-4,-0.1 -7.7,-1 -10.5,-2.7l-2.2,-1.3l2.3,1.5c2.7,1.7 6.5,3.7 10.5,3.8l-0.2,5.7c-3.9,-0.1 -7.5,-1.1 -10.3,-2.7l-2.2,-1.3l2.3,1.5c2.7,1.7 6.3,3.6 10.2,3.8l-0.2,8.2l2.1,0c-0.1,-2.6 -0.2,-8 -0.3,-11.2c3.9,-0.2 7.6,-2.1 10.3,-3.8l2.3,-1.5l-2.2,1.3c-3.1,1.6 -6.8,2.6 -10.7,2.7z" class="st8"/>
   </g>
   <g id="svg_49">
    <path id="svg_50" fill="url(#SVGID_25_)" d="m345.4,347c-7.6,0.2 -13.5,6.9 -13.5,14.5l0,4.9c0,4.7 3.8,8.5 8.5,8.5l10.9,0c4.7,0 8.5,-3.8 8.5,-8.5l0,-5.4c0,-7.9 -6.5,-14.2 -14.4,-14z" class="st27"/>
    <path id="svg_51" fill="#2F2833" d="m346.4,367.8c-0.1,-2.6 -0.1,-2.2 -0.2,-4.5c3.1,-0.1 6.1,-1.6 8.2,-3l1.8,-1.1l-1.7,1c-2.2,1.3 -5.2,2 -8.2,2.1c-0.2,-4.7 -0.4,-10.6 -0.4,-10.6l-0.4,12.9c-3.1,-0.1 -6,-0.8 -8.2,-2.1l-1.7,-1l1.8,1.1c2.1,1.3 5,2.9 8.1,3l-0.2,4.5c-3,-0.1 -5.8,-0.8 -8,-2.1l-1.7,-1l1.8,1.1c2.1,1.3 4.9,2.8 7.9,3l-0.2,6.4l1.6,0c-0.1,-2 -0.2,-6.2 -0.3,-8.7c3.1,-0.1 5.9,-1.7 8,-3l1.8,-1.1l-1.7,1c-2.2,1.3 -5.1,2 -8.1,2.1z" class="st8"/>
   </g>
   <g id="svg_52">
    <path id="svg_53" fill="url(#SVGID_26_)" d="m398.5,347c-7.6,0.2 -13.5,6.9 -13.5,14.5l0,4.9c0,4.7 3.8,8.5 8.5,8.5l10.9,0c4.7,0 8.5,-3.8 8.5,-8.5l0,-5.4c0,-7.9 -6.5,-14.2 -14.4,-14z" class="st28"/>
    <path id="svg_54" fill="#2F2833" d="m399.5,367.8c-0.1,-2.6 -0.1,-2.2 -0.2,-4.5c3.1,-0.1 6.1,-1.6 8.2,-3l1.8,-1.1l-1.7,1c-2.2,1.3 -5.2,2 -8.2,2.1c-0.2,-4.7 -0.4,-10.6 -0.4,-10.6l-0.4,12.9c-3.1,-0.1 -6,-0.8 -8.2,-2.1l-1.7,-1l1.8,1.1c2.1,1.3 5,2.9 8.1,3l-0.2,4.5c-3,-0.1 -5.8,-0.8 -8,-2.1l-1.7,-1l1.8,1.1c2.1,1.3 4.9,2.8 7.9,3l-0.2,6.4l1.6,0c-0.1,-2 -0.2,-6.2 -0.3,-8.7c3.1,-0.1 5.9,-1.7 8,-3l1.8,-1.1l-1.7,1c-2.2,1.3 -5.1,2 -8.1,2.1z" class="st8"/>
   </g>
   <g id="svg_55">
    <path id="svg_56" fill="url(#SVGID_27_)" d="m561.7,347c-7.6,0.2 -13.5,6.9 -13.5,14.5l0,4.9c0,4.7 3.8,8.5 8.5,8.5l10.9,0c4.7,0 8.5,-3.8 8.5,-8.5l0,-5.4c0,-7.9 -6.5,-14.2 -14.4,-14z" class="st29"/>
    <path id="svg_57" fill="#2F2833" d="m562.7,367.8c-0.1,-2.6 -0.1,-2.2 -0.2,-4.5c3.1,-0.1 6.1,-1.6 8.2,-3l1.8,-1.1l-1.7,1c-2.2,1.3 -5.2,2 -8.2,2.1c-0.2,-4.7 -0.4,-10.6 -0.4,-10.6l-0.4,12.9c-3.1,-0.1 -6,-0.8 -8.2,-2.1l-1.7,-1l1.8,1.1c2.1,1.3 5,2.9 8.1,3l-0.2,4.5c-3,-0.1 -5.8,-0.8 -8,-2.1l-1.7,-1l1.8,1.1c2.1,1.3 4.9,2.8 7.9,3l-0.2,6.4l1.6,0c-0.1,-2 -0.2,-6.2 -0.3,-8.7c3.1,-0.1 5.9,-1.7 8,-3l1.8,-1.1l-1.7,1c-2.2,1.3 -5.1,2 -8.1,2.1z" class="st8"/>
   </g>
   <polygon id="svg_58" fill="url(#SVGID_28_)" points="345,377.5 333.9,392.8 337.6,392.8 346.6,377.5  " class="st30"/>
   <polygon id="svg_59" fill="url(#SVGID_29_)" points="293.2,364.6 282.1,379.9 285.8,379.9 295.2,364.6  " class="st31"/>
   <polygon id="svg_60" fill="url(#SVGID_30_)" points="370.6,373.1 359.5,388.4 363.2,388.4 372.7,373.1  " class="st32"/>
   <polygon id="svg_61" fill="url(#SVGID_31_)" points="398.1,377.5 387,392.8 390.7,392.8 399.7,377.5  " class="st33"/>
   <polygon id="svg_62" fill="url(#SVGID_32_)" points="562.9,377.5 574,392.8 570.3,392.8 561.3,377.5  " class="st34"/>
   <path id="svg_63" fill="url(#SVGID_33_)" d="m439.3,362.8c6.3,7.2 14.5,11.8 22.6,15.6c8.2,3.8 16.6,6.7 25,9.3c16.8,5.3 33.5,9.7 49.8,14.8c16.2,5.1 32.1,10.7 46.4,18.2c14.3,7.4 26.9,16.6 35.5,27.9c4.4,5.6 7.7,11.7 10.2,18.1c2.7,7.1 4.8,14.4 6,21.4c0.7,4.1 1.1,8.1 1.1,12l42.3,0c-0.9,-7.6 -2.5,-15 -4.7,-21.9c-3.1,-9.7 -7.1,-18.7 -11.7,-27.2c-5,-9.2 -11.3,-17.6 -18.6,-24.8c-14.6,-14.4 -32.2,-23.5 -49.6,-29.9c-34.9,-12.5 -70,-15.3 -103.5,-21.3c-8.4,-1.5 -16.6,-3.3 -24.6,-5.7c-7.9,-2.5 -15.6,-5.7 -21.4,-10.9c-2.9,-2.6 -5.4,-5.9 -6.9,-9.4c-1.5,-3.5 -1.5,-7.4 0.3,-10.9c1.2,-2.4 3.2,-4.6 5.4,-6.5l-3.7,0c-1.7,1.3 -3.3,2.9 -4.6,4.8c-1.3,2 -2.3,4.3 -2.7,6.7c-0.4,2.5 -0.1,5 0.5,7.3c1.5,4.7 3.9,8.8 6.9,12.4z" class="st35"/>
   <path id="svg_64" fill="#0D5770" d="m641.5,427.6c7.3,7.2 13.5,15.7 18.5,24.9c4.5,8.6 8.5,17.5 11.5,27.3c2,6.4 3.5,13.2 4.4,20.2l2.4,0c-0.9,-7.6 -2.5,-15 -4.7,-21.9c-3.1,-9.7 -7.1,-18.7 -11.7,-27.2c-5,-9.2 -11.3,-17.6 -18.6,-24.8c-14.6,-14.4 -32.2,-23.5 -49.6,-29.9c-34.9,-12.5 -69.9,-15.3 -103.5,-21.3c33.3,6.2 67.4,9.7 102.1,22.4c17.2,6.5 34.7,15.7 49.2,30.3z" class="st36"/>
   <path id="svg_65" fill="#0D5770" d="m442.9,358.3c5.8,5.3 13.5,8.5 21.3,11.1c7.9,2.5 16.9,3.9 25.2,5.5c0.2,0 0.3,0.1 0.5,0.1c-8.4,-1.5 -16.6,-3.3 -24.5,-5.7c-7.9,-2.5 -15.6,-5.7 -21.4,-10.9c-2.9,-2.6 -5.4,-5.9 -6.9,-9.4c-1.5,-3.5 -1.5,-7.4 0.3,-10.9c1.2,-2.4 3.2,-4.6 5.4,-6.5l-0.8,0c-2.3,1.9 -4.2,4 -5.5,6.4c-1.9,3.5 -1.8,7.4 -0.4,10.9c1.5,3.4 4,6.8 6.8,9.4z" class="st36"/>
  </g>
  <polygon id="svg_66" fill="#FFFFFF" points="698.7,57.6 697,57.3 696.3,55.8 695.5,57.3 693.8,57.6 695.1,58.8 694.8,60.5 696.3,59.7 697.8,60.5   697.5,58.8 " class="st37 star1"/>
  <polygon id="svg_67" fill="#FFFFFF" points="177.2,70.3 175.5,70.1 174.7,68.5 174,70.1 172.3,70.3 173.5,71.5 173.2,73.2 174.7,72.4 176.2,73.2   175.9,71.5 " class="st37 star2"/>
  <polygon id="svg_68" fill="#FFFFFF" points="440.5,31.9 438.8,31.7 438.1,30.2 437.3,31.7 435.6,31.9 436.8,33.1 436.6,34.8 438.1,34 439.6,34.8   439.3,33.1 " class="st37 star3"/>
  <polygon id="svg_69" fill="#FFFFFF" points="299.3,34.3 297.6,34 296.9,32.5 296.1,34 294.4,34.3 295.6,35.5 295.4,37.1 296.9,36.3 298.4,37.1   298.1,35.5 " class="st37 star4"/>
  <polygon id="svg_70" fill="#FFFFFF" points="86.3,59.9 84.6,59.7 83.9,58.1 83.1,59.7 81.4,59.9 82.6,61.1 82.3,62.8 83.9,62 85.4,62.8 85.1,61.1   " class="st37 star5"/>
  <polygon id="svg_71" fill="#FFFFFF" points="45.6,20.5 43.9,20.2 43.2,18.7 42.4,20.2 40.7,20.5 41.9,21.7 41.6,23.3 43.2,22.5 44.7,23.3   44.4,21.7 " class="st37 star6"/>
  <polygon id="svg_72" fill="#FFFFFF" points="586.6,49.8 584.9,49.5 584.2,48 583.4,49.5 581.7,49.8 582.9,50.9 582.7,52.6 584.2,51.8 585.7,52.6   585.4,50.9 " class="st37 star7"/>
  <polygon id="svg_73" fill="#FFFFFF" points="157.4,132 155.8,131.8 155,130.3 154.2,131.8 152.6,132 153.8,133.2 153.5,134.9 155,134.1   156.5,134.9 156.2,133.2 " class="st37 star8"/>
  <polygon id="svg_74" fill="#FFFFFF" points="45.6,115.5 43.9,115.3 43.2,113.8 42.4,115.3 40.7,115.5 41.9,116.7 41.6,118.4 43.2,117.6   44.7,118.4 44.4,116.7 " class="st37 star9"/>
  <polygon id="svg_75" fill="#FFFFFF" points="629.5,142 627.8,141.7 627.1,140.2 626.3,141.7 624.6,142 625.8,143.2 625.5,144.9 627.1,144.1   628.6,144.9 628.3,143.2 " class="st37 star10"/>
  <polygon id="svg_76" fill="#FFFFFF" points="683.1,152.4 681.4,152.1 680.7,150.6 679.9,152.1 678.2,152.4 679.4,153.5 679.2,155.2 680.7,154.4   682.2,155.2 681.9,153.5 " class="st37 star1"/>
  <polygon id="svg_77" fill="#FFFFFF" points="563.7,182.7 562,182.5 561.3,181 560.5,182.5 558.8,182.7 560,183.9 559.8,185.6 561.3,184.8   562.8,185.6 562.5,183.9 " class="st37 star2"/>
 </g>
</svg>