<svg width="750" height="500" xmlns="http://www.w3.org/2000/svg" version="1.1" xml:space="preserve">
 <defs>
  <linearGradient id="SVGID_2_" x1="0.49988" y1="0.99983" x2="0.49988" y2="-0.00015">
   <stop offset="0" stop-color="#3BD4C3"/>
   <stop offset="1" stop-color="#187A93"/>
  </linearGradient>
  <linearGradient id="SVGID_3_" x1="0.49996" y1="0.99985" x2="0.49996" y2="0.00001">
   <stop offset="0" stop-color="#3BD4C3"/>
   <stop offset="1" stop-color="#187A93"/>
  </linearGradient>
  <linearGradient id="SVGID_4_" x1="0.49936" y1="0.99973" x2="0.49936" y2="-0.00067">
   <stop offset="0" stop-color="#3C3461"/>
   <stop offset="0.1595" stop-color="#3A3A63"/>
   <stop offset="0.3704" stop-color="#354B69"/>
   <stop offset="0.61" stop-color="#2D6672"/>
   <stop offset="0.8689" stop-color="#228C7F"/>
   <stop offset="1" stop-color="#1CA286"/>
  </linearGradient>
  <linearGradient id="SVGID_6_" x1="0.49765" y1="1.00043" x2="0.49765" y2="0.00091">
   <stop offset="0" stop-color="#1C548E"/>
   <stop offset="1" stop-color="#3CA773"/>
  </linearGradient>
  <linearGradient id="SVGID_7_" x1="0.49761" y1="1.00005" x2="0.49761" y2="0.00054">
   <stop offset="0" stop-color="#1C548E"/>
   <stop offset="1" stop-color="#3CA773"/>
  </linearGradient>
  <linearGradient id="SVGID_8_" x1="0.49998" y1="1.28791" x2="0.49998" y2="-0.00142">
   <stop offset="0" stop-color="#3C3461"/>
   <stop offset="0.1595" stop-color="#3A3A63"/>
   <stop offset="0.3704" stop-color="#354B69"/>
   <stop offset="0.61" stop-color="#2D6672"/>
   <stop offset="0.8689" stop-color="#228C7F"/>
   <stop offset="1" stop-color="#1CA286"/>
  </linearGradient>
  <linearGradient id="SVGID_9_" x1="0.49829" y1="0.99975" x2="0.49829" y2="0.00003">
   <stop offset="0" stop-color="#1C548E"/>
   <stop offset="1" stop-color="#3CA773"/>
  </linearGradient>
  <linearGradient id="SVGID_10_" x1="0.49972" y1="1.00087" x2="0.49972" y2="0.00009">
   <stop offset="0" stop-color="#1C548E"/>
   <stop offset="1" stop-color="#3CA773"/>
  </linearGradient>
  <linearGradient id="SVGID_11_" x1="0.49743" y1="1" x2="0.49743" y2="0.00051">
   <stop offset="0" stop-color="#3C778E"/>
   <stop offset="1" stop-color="#A9D99F"/>
  </linearGradient>
  <linearGradient id="SVGID_13_" x1="0.49879" y1="0.99995" x2="0.49879" y2="-0.00099">
   <stop offset="0" stop-color="#3C778E"/>
   <stop offset="1" stop-color="#A9D99F"/>
  </linearGradient>
  <linearGradient id="SVGID_14_" x1="0.07892" y1="1.07052" x2="0.9204" y2="0.00148">
   <stop offset="0" stop-color="#44757A" stop-opacity="0"/>
   <stop offset="1" stop-color="#44757A"/>
  </linearGradient>
  <linearGradient id="SVGID_15_" x1="0.77073" y1="0.98661" x2="0.17614" y2="-0.07894">
   <stop offset="0" stop-color="#44757A" stop-opacity="0"/>
   <stop offset="1" stop-color="#44757A"/>
  </linearGradient>
  <linearGradient id="SVGID_16_" x1="0.77094" y1="0.98752" x2="0.17767" y2="-0.07803">
   <stop offset="0" stop-color="#44757A" stop-opacity="0"/>
   <stop offset="1" stop-color="#44757A"/>
  </linearGradient>
  <linearGradient id="SVGID_17_" x1="0.76632" y1="0.99308" x2="0.18105" y2="-0.08641">
   <stop offset="0" stop-color="#44757A" stop-opacity="0"/>
   <stop offset="1" stop-color="#44757A"/>
  </linearGradient>
  <linearGradient id="SVGID_18_" x1="0.18149" y1="0.94324" x2="0.87744" y2="-0.02895">
   <stop offset="0" stop-color="#44757A" stop-opacity="0"/>
   <stop offset="1" stop-color="#44757A"/>
  </linearGradient>
  <linearGradient id="SVGID_19_" x1="0.1819" y1="0.94425" x2="0.87656" y2="-0.02892">
   <stop offset="0" stop-color="#44757A" stop-opacity="0"/>
   <stop offset="1" stop-color="#44757A"/>
  </linearGradient>
  <linearGradient id="SVGID_20_" x1="0.18785" y1="0.94753" x2="0.87123" y2="-0.03439">
   <stop offset="0" stop-color="#44757A" stop-opacity="0"/>
   <stop offset="1" stop-color="#44757A"/>
  </linearGradient>
  <linearGradient id="SVGID_21_" x1="0.49908" y1="1.5384" x2="0.49908" y2="-0.0004">
   <stop offset="0" stop-color="#1C548E"/>
   <stop offset="1" stop-color="#3CA773"/>
  </linearGradient>
  <linearGradient id="SVGID_22_" x1="0.49743" y1="0.99904" x2="0.49743" y2="-0.00029">
   <stop offset="0" stop-color="#3C778E"/>
   <stop offset="1" stop-color="#A9D99F"/>
  </linearGradient>
  <linearGradient id="SVGID_23_" x1="0.49895" y1="0.99901" x2="0.49895" y2="0.00106">
   <stop offset="0" stop-color="#1C548E"/>
   <stop offset="1" stop-color="#6DA77D"/>
  </linearGradient>
  <linearGradient id="SVGID_24_" x1="0.50121" y1="0.99797" x2="0.50121" y2="0.00001">
   <stop offset="0" stop-color="#1C548E"/>
   <stop offset="1" stop-color="#6DA77D"/>
  </linearGradient>
  <linearGradient id="SVGID_25_" x1="0.49842" y1="1.00242" x2="0.49842" y2="0.00111">
   <stop offset="0" stop-color="#3C778E"/>
   <stop offset="1" stop-color="#BDD98E"/>
  </linearGradient>
  <linearGradient id="SVGID_27_" x1="0.49958" y1="1.00242" x2="0.49958" y2="0.00111">
   <stop offset="0" stop-color="#3C778E"/>
   <stop offset="1" stop-color="#BDD98E"/>
  </linearGradient>
  <linearGradient id="SVGID_28_" x1="0.50025" y1="0.99894" x2="0.50025" y2="-0.00033">
   <stop offset="0" stop-color="#44757A" stop-opacity="0"/>
   <stop offset="1" stop-color="#44757A"/>
  </linearGradient>
  <linearGradient id="SVGID_29_" x1="0.50073" y1="0.99835" x2="0.50073" y2="-0.00091">
   <stop offset="0" stop-color="#44757A" stop-opacity="0"/>
   <stop offset="1" stop-color="#44757A"/>
  </linearGradient>
  <linearGradient id="SVGID_30_" x1="0.49693" y1="1.00082" x2="0.49693" y2="0.00156">
   <stop offset="0" stop-color="#44757A" stop-opacity="0"/>
   <stop offset="1" stop-color="#44757A"/>
  </linearGradient>
  <linearGradient id="SVGID_31_" x1="0.50158" y1="0.99894" x2="0.50158" y2="-0.00033">
   <stop offset="0" stop-color="#44757A" stop-opacity="0"/>
   <stop offset="1" stop-color="#44757A"/>
  </linearGradient>
  <linearGradient id="SVGID_32_" x1="0.49962" y1="0.99894" x2="0.49962" y2="-0.00033">
   <stop offset="0" stop-color="#44757A" stop-opacity="0"/>
   <stop offset="1" stop-color="#44757A"/>
  </linearGradient>
  <linearGradient id="SVGID_33_" x1="0.13488" y1="-0.1124" x2="0.95602" y2="1.17481">
   <stop offset="0" stop-color="#7EA596"/>
   <stop offset="0.3857" stop-color="#4E8C95"/>
   <stop offset="0.794" stop-color="#217493"/>
   <stop offset="1" stop-color="#0F6B93"/>
  </linearGradient>
 </defs>
 <g>
  <title>Layer 1</title>
  <rect fill="#111821" x="-51" y="-4" width="872" height="514" id="svg_78"/>
  <rect fill="#11182d" x="0" y="345" width="853" height="229" id="svg_82"/>
  <g stroke="null" class="st1" opacity="0.54" id="svg_2">
   <path stroke="null" class="st2" d="m747,270.99557c0,0 -43.6,-2.16924 -59.6,33.32737s-53.5,13.90284 -58.7,55.90715s-48.3,75.72609 -48.3,75.72609l166.6,0l0,-164.9606z" fill="url(#SVGID_2_)" id="svg_3"/>
   <circle stroke="null" class="st3" cx="510.9" cy="366.41331" r="65.86592" fill="#F3FCD0" id="svg_4"/>
   <path stroke="null" class="st4" d="m-3,250.78223c0,0 70.5,-10.94479 107.5,31.84834s69,11.8322 95.7,13.80423s46.7,45.45537 85.4,46.04698c38.7,0.69021 51.4,-34.21478 82.8,-31.55254s58.1,102.64434 161.5,125.02692l-532.9,0l0,-185.17395z" fill="url(#SVGID_3_)" id="svg_5"/>
   <path stroke="null" class="st5" d="m747,377.58399c-3,-2.07064 -8.1,-0.78881 -8.5,3.74686c0,0.0986 0,0.0986 0,0.1972c0,0.49301 -0.2,1.18322 -0.3,1.77483c-3.7,-14.69165 -12.6,-31.55254 -13.3,-39.44067c0,-0.0986 0,-0.1972 0,-0.29581c-1.2,-11.5364 -18.3,-11.5364 -19.5,0c0,0.0986 0,0.1972 0,0.29581c-0.5,6.31051 -6.2,18.14271 -10.4,30.07351c-2.2,-5.7189 -4.2,-10.74758 -4.5,-13.90284c0,-0.0986 0,-0.1972 0,-0.1972c-0.9,-8.77555 -13.9,-8.77555 -14.8,0c0,0.0986 0,0.1972 0,0.1972c-0.3,3.94407 -3.3,10.74758 -6.1,18.14271c-1.7,-4.53568 -3.2,-8.38114 -3.4,-11.04339c0,-0.0986 0,-0.1972 0,-0.1972c-0.9,-8.77555 -13.9,-8.77555 -14.8,0c0,0.0986 0,0.1972 0,0.1972c-0.3,3.15525 -2.2,7.98674 -4.3,13.50843c-5.4,-14.98745 -12.3,-29.6791 -13,-37.56724c0,-0.0986 0,-0.29581 0,-0.39441c-1.5,-15.08606 -23.9,-15.08606 -25.4,0c0,0.0986 0,0.29581 0,0.39441c-0.7,7.88813 -7.4,22.28398 -12.8,37.17283c-2.2,-5.52169 -4,-10.35318 -4.2,-13.60703c0,-0.0986 0,-0.1972 0,-0.29581c-1,-10.15597 -16.1,-10.15597 -17.1,0c0,0.0986 0,0.1972 0,0.29581c-0.6,6.60631 -7.4,20.01614 -11,32.34135c-0.8,-2.26784 -1.5,-4.23987 -1.6,-5.7189c0,-0.0986 0,-0.0986 0,-0.1972c-0.6,-6.31051 -10,-6.31051 -10.7,0c0,0.0986 0,0.0986 0,0.1972c-0.5,5.42309 -7.7,18.04411 -8.2,26.91826c0,0 0,0 0,0l0,15.77627l203.9,0l0,-58.37219z" fill="url(#SVGID_4_)" id="svg_6"/>
   <g stroke="null" id="svg_8">
    <path stroke="null" class="st7" d="m653.5,382.31687c0,-0.0986 0,-0.29581 0,-0.39441c-1.4,-14.10004 -22.3,-14.10004 -23.8,0c0,0.0986 0,0.29581 0,0.39441c-1.1,12.81822 -19.5,44.27215 -18.1,64.09109c1.4,19.72034 20,22.67839 30.1,22.67839c10,0 28.7,-2.95805 30.1,-22.67839c1.2,-19.72034 -17.3,-51.27287 -18.3,-64.09109z" fill="url(#SVGID_6_)" id="svg_9"/>
    <path stroke="null" class="st8" d="m642.5,440.09745c-0.1,-7.39513 -0.2,-8.18394 -0.3,-14.79025c5.3,-0.29581 10.3,-2.66225 13.8,-6.50771l3,-3.25386l-2.9,2.85945c-3.7,3.64826 -8.7,5.8175 -13.9,5.9161c-0.3,-13.40983 -0.6,-30.46792 -0.6,-30.46792l-0.8,37.17283c-5.2,-0.1972 -10.1,-2.26784 -13.8,-5.9161l-2.9,-2.85945l3,3.25386c3.6,3.84547 8.5,6.1133 13.7,6.50771l-0.3,14.79025c-5.1,-0.29581 -9.9,-2.36644 -13.5,-5.9161l-2.9,-2.85945l3,3.25386c3.5,3.74686 8.3,6.0147 13.4,6.50771l-0.8,34.70779l1.9,0l1.9,0c0,0 -0.5,-18.04411 -0.9,-41.4127c5.2,-0.39441 10,-2.76085 13.5,-6.50771l3,-3.25386l-2.9,2.85945c-3.7,3.54966 -8.6,5.6203 -13.7,5.9161z" fill="#2F2833" id="svg_10"/>
   </g>
   <g stroke="null" id="svg_11">
    <path stroke="null" class="st9" d="m702.8,404.10784c0,-0.0986 0,-0.29581 0,-0.39441c-1.4,-14.10004 -22.3,-14.10004 -23.8,0c0,0.0986 0,0.29581 0,0.39441c-1.1,12.81822 -19.5,44.27215 -18.1,64.09109c1.4,19.72034 20,22.67839 30.1,22.67839c10,0 28.7,-2.95805 30.1,-22.67839c1.2,-19.72034 -17.3,-51.27287 -18.3,-64.09109z" fill="url(#SVGID_7_)" id="svg_12"/>
    <path stroke="null" class="st8" d="m691.8,461.78982c-0.1,-7.39513 -0.2,-8.18394 -0.3,-14.79025c5.3,-0.29581 10.3,-2.66225 13.8,-6.50771l3,-3.25386l-2.9,2.85945c-3.7,3.64826 -8.7,5.8175 -13.9,5.9161c-0.3,-13.40983 -0.6,-30.46792 -0.6,-30.46792l-0.8,37.17283c-5.2,-0.1972 -10.1,-2.26784 -13.8,-5.9161l-2.9,-2.85945l3,3.25386c3.6,3.84547 8.5,6.1133 13.7,6.50771l-0.3,14.79025c-5.1,-0.29581 -9.9,-2.36644 -13.5,-5.9161l-2.9,-2.85945l3,3.25386c3.5,3.74686 8.3,6.0147 13.4,6.50771l-0.8,34.70779l1.9,0l1.9,0c0,0 -0.5,-18.04411 -0.9,-41.4127c5.2,-0.39441 10,-2.76085 13.5,-6.50771l3,-3.25386l-2.9,2.85945c-3.7,3.64826 -8.6,5.7189 -13.7,5.9161z" fill="#2F2833" id="svg_13"/>
   </g>
   <path stroke="null" class="st10" d="m-3,435.95618l302.8,0c-2.5,-11.635 -10,-25.63644 -10.6,-32.14415c0,-0.0986 0,-0.1972 0,-0.1972c-0.9,-8.77555 -14,-8.77555 -14.8,0c0,0.0986 0,0.1972 0,0.1972c-0.2,2.36644 -1.4,5.8175 -2.9,9.76157c-4.3,-14.39584 -12.2,-29.87631 -12.8,-37.56724c0,-0.0986 0,-0.1972 0,-0.29581c-1.2,-12.0294 -19.2,-12.0294 -20.4,0c0,0.0986 0,0.1972 0,0.29581c-0.7,7.98674 -9.1,24.25601 -13.3,39.14486c-1.5,-3.94407 -2.8,-7.39513 -3,-9.66296c0,-0.0986 0,-0.0986 0,-0.1972c-0.8,-7.59233 -12,-7.59233 -12.8,0c0,0.0986 0,0.0986 0,0.1972c-0.1,1.47903 -0.7,3.45106 -1.5,5.7189c-4.8,-20.01614 -17.1,-43.18753 -18,-54.13232c0,-0.0986 0,-0.29581 0,-0.39441c-1.6,-15.38186 -24.5,-15.38186 -26,0c0,0.0986 0,0.29581 0,0.39441c-0.7,8.18394 -7.9,23.3686 -13.4,38.94766c-1,-2.95805 -1.7,-5.52169 -1.8,-7.49373c0,-0.0986 0,-0.1972 0,-0.29581c-1.2,-11.7336 -18.7,-11.7336 -19.9,0c0,0.0986 0,0.1972 0,0.29581c-0.2,2.85945 -1.5,6.90212 -3.3,11.5364c-6.4,-17.7483 -14.5,-34.90499 -15.2,-44.27215c0,-0.1972 0,-0.29581 0,-0.49301c-1.8,-18.04411 -28.7,-18.04411 -30.5,0c0,0.1972 0,0.29581 0,0.49301c-0.8,9.46576 -9,27.01686 -15.5,44.96236c-3.9,-10.05737 -7.9,-19.22733 -8.3,-24.65042c0,-0.0986 0,-0.1972 0,-0.29581c-1.2,-12.0294 -19.2,-12.0294 -20.4,0c0,0.0986 0,0.1972 0,0.29581c-0.3,3.45106 -2.1,8.57835 -4.3,14.39584c-6.5,-19.32593 -16.1,-38.84906 -16.9,-49.10363c0,-0.1972 0,-0.29581 0,-0.49301c-1,-9.46576 -9,-13.80423 -16.5,-13.11402l0,108.16604l-0.7,0z" fill="url(#SVGID_8_)" id="svg_14"/>
   <g stroke="null" id="svg_15">
    <path stroke="null" class="st11" d="m97,371.17488c0,-0.1972 0,-0.29581 0,-0.49301c-1.9,-19.03012 -30.2,-19.03012 -32.1,0c0,0.1972 0,0.29581 0,0.49301c-1.5,17.35389 -26.3,59.85122 -24.5,86.57227c1.8,26.72105 27.1,30.66512 40.6,30.66512c13.5,0 38.8,-3.94407 40.6,-30.66512c1.7,-26.72105 -23.2,-69.31698 -24.6,-86.57227z" fill="url(#SVGID_9_)" id="svg_16"/>
    <path stroke="null" class="st8" d="m82.1,449.0702c-0.2,-10.05737 -0.2,-11.14199 -0.4,-20.01614c7.1,-0.49301 13.9,-3.54966 18.7,-8.77555l4.1,-4.33847l-4,3.94407c-5,4.93008 -11.8,7.78953 -18.8,7.98674c-0.4,-18.04411 -0.8,-41.1169 -0.8,-41.1169l-1,50.18825c-7,-0.29581 -13.7,-3.05665 -18.7,-7.98674l-4,-3.94407l4.1,4.33847c4.8,5.12729 11.4,8.28254 18.5,8.77555l-0.4,20.01614c-6.9,-0.39441 -13.3,-3.15525 -18.2,-7.98674l-4,-3.94407l4.1,4.33847c4.7,5.02869 11.2,8.18394 18.1,8.77555l-1.1,46.8358l2.6,0l2.6,0c0,0 -0.6,-24.45322 -1.3,-55.90715c7,-0.59161 13.5,-3.64826 18.3,-8.77555l4.1,-4.33847l-4,3.94407c-5,4.93008 -11.6,7.69093 -18.5,7.98674z" fill="#2F2833" id="svg_17"/>
   </g>
   <g stroke="null" id="svg_18">
    <path stroke="null" class="st12" d="m197.7,420.57432c0,-0.0986 0,-0.29581 0,-0.39441c-1.5,-15.28326 -24.3,-15.28326 -25.9,0c0,0.0986 0,0.29581 0,0.39441c-1.2,13.90284 -21.2,48.21622 -19.7,69.71138c1.5,21.49517 21.8,24.65042 32.7,24.65042c10.9,0 31.2,-3.15525 32.7,-24.65042c1.5,-21.49517 -18.6,-55.70995 -19.8,-69.71138z" fill="url(#SVGID_10_)" id="svg_19"/>
    <path stroke="null" class="st8" d="m185.8,483.38358c-0.2,-8.08534 -0.2,-8.97275 -0.3,-16.17067c5.8,-0.39441 11.2,-2.85945 15.1,-7.09932l3.3,-3.54966l-3.2,3.15525c-4,3.94407 -9.5,6.31051 -15.2,6.40911c-0.3,-14.49445 -0.7,-33.13016 -0.7,-33.13016l-0.8,40.42669c-5.6,-0.1972 -11,-2.46504 -15,-6.40911l-3.2,-3.15525l3.3,3.54966c3.9,4.14127 9.2,6.70491 14.9,7.09932l-0.3,16.17067c-5.5,-0.29581 -10.8,-2.56364 -14.7,-6.40911l-3.2,-3.15525l3.3,3.54966c3.8,4.04267 9,6.60631 14.6,7.09932l-0.9,37.76444l2.1,0l2.1,0c0,0 -0.5,-19.62173 -1,-45.06097c5.6,-0.39441 10.9,-2.95805 14.7,-7.09932l3.3,-3.54966l-3.2,3.15525c-4.1,3.84547 -9.4,6.21191 -15,6.40911z" fill="#2F2833" id="svg_20"/>
   </g>
   <g stroke="null" id="svg_21">
    <path stroke="null" class="st13" d="m611.9,412.29178c0,-0.0986 0,-0.1972 0,-0.29581c-1.1,-10.55038 -16.8,-10.55038 -17.8,0c0,0.0986 0,0.1972 0,0.29581c-0.8,9.66296 -14.6,33.22876 -13.6,48.11762c1,14.79025 15,17.05809 22.6,17.05809c7.5,0 21.5,-2.16924 22.6,-17.05809c0.9,-14.79025 -13,-38.45465 -13.8,-48.11762z" fill="url(#SVGID_11_)" id="svg_22"/>
    <path stroke="null" class="st8" d="m603.7,455.67651c-0.1,-5.52169 -0.1,-6.21191 -0.2,-11.14199c4,-0.29581 7.7,-1.97203 10.4,-4.93008l2.3,-2.46504l-2.2,2.16924c-2.8,2.76085 -6.5,4.33847 -10.5,4.43708c-0.2,-10.05737 -0.5,-22.87559 -0.5,-22.87559l-0.6,27.90427c-3.9,-0.0986 -7.6,-1.67623 -10.4,-4.43708l-2.2,-2.16924l2.3,2.46504c2.7,2.85945 6.4,4.63428 10.3,4.93008l-0.2,11.14199c-3.8,-0.1972 -7.4,-1.77483 -10.1,-4.43708l-2.2,-2.16924l2.3,2.46504c2.6,2.85945 6.2,4.53568 10.1,4.83148l-0.6,26.03084l1.4,0l1.4,0c0,0 -0.4,-13.60703 -0.7,-31.05953c3.9,-0.29581 7.5,-2.07064 10.2,-4.83148l2.3,-2.46504l-2.2,2.16924c-2.9,2.66225 -6.6,4.23987 -10.4,4.43708z" fill="#2F2833" id="svg_23"/>
   </g>
   <g stroke="null" id="svg_24">
    <path stroke="null" class="st8" d="m131.5,497.18782c-0.2,-8.08534 -0.2,-8.97275 -0.3,-16.17067c5.8,-0.39441 11.2,-2.85945 15.1,-7.09932l3.3,-3.54966l-3.2,3.15525c-4,3.94407 -9.5,6.31051 -15.2,6.50771c-0.3,-14.59305 -0.7,-33.22876 -0.7,-33.22876l-0.8,40.52529c-5.7,-0.1972 -11,-2.46504 -15,-6.50771l-3.2,-3.15525l3.3,3.54966c3.9,4.14127 9.2,6.70491 14.9,7.09932l-0.3,16.17067c-5.5,-0.29581 -10.8,-2.56364 -14.7,-6.40911l-3.2,-3.15525l3.3,3.54966c3.8,4.04267 9,6.60631 14.6,7.09932l-0.9,37.76444l2.1,0l2.1,0c0,0 -0.5,-19.72034 -1,-45.06097c5.6,-0.39441 10.9,-2.95805 14.7,-7.09932l3.3,-3.54966l-3.2,3.15525c-4.1,3.84547 -9.4,6.1133 -15,6.40911z" fill="#2F2833" id="svg_26"/>
   </g>
   <g stroke="null" id="svg_27">
    <path stroke="null" class="st15" d="m260.1,480.42553c0,-0.0986 0,-0.1972 0,-0.29581c-1.2,-12.0294 -19.2,-12.0294 -20.4,0c0,0.0986 0,0.1972 0,0.29581c-0.9,11.04339 -16.8,38.06025 -15.6,55.01973c1.2,16.95949 17.2,19.52313 25.8,19.52313c8.6,0 24.7,-2.56364 25.8,-19.52313c1.1,-16.95949 -14.7,-44.07495 -15.6,-55.01973z" fill="url(#SVGID_13_)" id="svg_28"/>
    <path stroke="null" class="st8" d="m250.6,530.02218c-0.1,-6.40911 -0.1,-7.09932 -0.3,-12.71962c4.5,-0.29581 8.8,-2.26784 11.9,-5.6203l2.6,-2.76085l-2.5,2.46504c-3.2,3.15525 -7.5,4.93008 -12,5.12729c-0.2,-11.43779 -0.5,-26.12944 -0.5,-26.12944l-0.6,31.94694c-4.5,-0.1972 -8.7,-1.97203 -11.9,-5.12729l-2.5,-2.46504l2.6,2.76085c3.1,3.25386 7.3,5.32449 11.8,5.6203l-0.3,12.71962c-4.4,-0.1972 -8.5,-2.07064 -11.6,-5.12729l-2.5,-2.46504l2.6,2.76085c3,3.25386 7.1,5.22589 11.5,5.6203l-0.7,29.77771l1.6,0l1.6,0c0,0 -0.4,-15.57906 -0.8,-35.4966c4.4,-0.39441 8.6,-2.36644 11.6,-5.6203l2.6,-2.76085l-2.5,2.46504c-3.1,2.95805 -7.3,4.83148 -11.7,5.02869z" fill="#2F2833" id="svg_29"/>
   </g>
   <polygon stroke="null" class="st16" points="231.10000610351562,602.0014038085938 251.5,566.3075561523438 248.1999969482422,566.3075561523438 223.60000610351562,602.0014038085938 " fill="url(#SVGID_14_)" id="svg_30"/>
   <polygon stroke="null" class="st17" points="692.7000122070312,504.0899658203125 733.9000244140625,544.8124389648438 725.9000244140625,544.8124389648438 689,504.0899658203125 " fill="url(#SVGID_15_)" id="svg_31"/>
   <polygon stroke="null" class="st18" points="643.4000244140625,482.2989807128906 684.5999755859375,523.021484375 676.5,523.021484375 639.5999755859375,482.2989807128906 " fill="url(#SVGID_16_)" id="svg_32"/>
   <polygon stroke="null" class="st19" points="604.4000244140625,487.4262390136719 647.7000122070312,528.0501708984375 639.5999755859375,528.0501708984375 601.5999755859375,487.4262390136719 " fill="url(#SVGID_17_)" id="svg_33"/>
   <polygon stroke="null" class="st20" points="182.6999969482422,529.4305419921875 151.8000030517578,570.153076171875 159.8000030517578,570.153076171875 186.8000030517578,529.4305419921875 " fill="url(#SVGID_18_)" id="svg_34"/>
   <polygon stroke="null" class="st21" points="128.39999389648438,543.2348022460938 97.5,583.957275390625 105.5,583.957275390625 132.60000610351562,543.2348022460938 " fill="url(#SVGID_19_)" id="svg_35"/>
   <polygon stroke="null" class="st22" points="78.4000015258789,506.2591552734375 47.400001525878906,546.981689453125 55.400001525878906,546.981689453125 83.4000015258789,506.2591552734375 " fill="url(#SVGID_20_)" id="svg_36"/>
   <g stroke="null" id="svg_37">
    <path stroke="null" class="st23" d="m97.9,602.0014c-5,-25.53783 -22,-56.79456 -23.2,-70.99321c0,-0.1972 0,-0.29581 0,-0.49301c-1.9,-19.03012 -30.2,-19.03012 -32.1,0c0,0.1972 0,0.29581 0,0.49301c-1.2,14.19864 -18.2,45.55397 -23.2,70.99321l78.5,0z" fill="url(#SVGID_21_)" id="svg_38"/>
    <path stroke="null" class="st8" d="m57.5,597.95873l-0.1,4.04267l2.2,0c-0.1,-4.43708 -0.1,-6.80352 -0.3,-13.11402c7.1,-0.49301 13.9,-3.54966 18.7,-8.77555l4.1,-4.33847l-4,3.94407c-5,4.93008 -11.8,7.78953 -18.8,7.98674c-0.4,-18.04411 -0.8,-41.1169 -0.8,-41.1169l-1,50.18825c-7,-0.29581 -13.7,-3.05665 -18.7,-7.98674l-4,-3.94407l4.2,4.33847c4.8,5.12729 11.5,8.28254 18.5,8.77555z" fill="#2F2833" id="svg_39"/>
   </g>
   <g stroke="null" id="svg_40">
    <path stroke="null" class="st24" d="m747,517.00675c-1.5,-4.14127 -2.6,-7.78953 -2.8,-10.45178c0,-0.0986 0,-0.1972 0,-0.39441c-1.3,-13.21262 -21,-13.21262 -22.3,0c0,0.0986 0,0.1972 0,0.39441c-1,12.0294 -18.3,41.60991 -17,60.24562c1.3,18.53711 18.8,21.29796 28.2,21.29796c3.9,0 9.1,-0.49301 14,-2.26784l0,-68.82397l-0.1,0z" fill="url(#SVGID_22_)" id="svg_41"/>
    <path stroke="null" class="st8" d="m747,555.067l0,-0.1972l-0.3,0.29581c-3.4,3.35246 -8,5.32449 -12.8,5.52169c-0.1,-7.00072 -0.2,-7.69093 -0.3,-13.90284c5,-0.29581 9.6,-2.46504 13,-6.1133l0.4,-0.39441l0,-0.1972l-0.3,0.29581c-3.5,3.45106 -8.2,5.42309 -13.1,5.6203c-0.3,-12.52241 -0.6,-28.59449 -0.6,-28.59449l-0.7,34.90499c-4.9,-0.1972 -9.5,-2.16924 -13,-5.52169l-2.8,-2.76085l2.8,3.05665c3.3,3.54966 8,5.8175 12.9,6.1133l-0.3,13.90284c-4.8,-0.1972 -9.3,-2.16924 -12.7,-5.52169l-2.8,-2.76085l2.8,3.05665c3.3,3.54966 7.8,5.7189 12.6,6.1133l-0.8,32.53855l3.6,0c0,0 -0.4,-16.95949 -0.9,-38.84906c4.9,-0.39441 9.4,-2.56364 12.7,-6.1133l0.6,-0.49301z" fill="#2F2833" id="svg_42"/>
   </g>
   <g stroke="null" id="svg_43">
    <path stroke="null" class="st25" d="m368.1,438.12541c-9.9,0.29581 -17.5,8.77555 -17.5,18.53711l0,6.21191c0,6.0147 4.9,10.84618 11,10.84618l14.1,0c6.1,0 11,-4.83148 11,-10.84618l0,-7.00072c-0.1,-9.95877 -8.4,-18.04411 -18.6,-17.7483z" fill="url(#SVGID_23_)" id="svg_44"/>
    <path stroke="null" class="st8" d="m369.3,464.55066c-0.1,-3.25386 -0.1,-2.76085 -0.2,-5.6203c4,-0.1972 7.8,-2.07064 10.6,-3.74686l2.3,-1.47903l-2.2,1.28182c-2.8,1.57763 -6.6,2.56364 -10.6,2.66225c-0.2,-5.9161 -0.5,-13.50843 -0.5,-13.50843l-0.6,16.46648c-4,-0.0986 -7.7,-0.98602 -10.5,-2.66225l-2.2,-1.28182l2.3,1.47903c2.7,1.67623 6.5,3.64826 10.5,3.74686l-0.2,5.6203c-3.9,-0.0986 -7.5,-1.08462 -10.3,-2.66225l-2.2,-1.28182l2.3,1.47903c2.7,1.67623 6.3,3.54966 10.2,3.74686l-0.2,8.08534l2.1,0c-0.1,-2.56364 -0.2,-7.88813 -0.3,-11.04339c3.9,-0.1972 7.6,-2.07064 10.3,-3.74686l2.3,-1.47903l-2.2,1.28182c-3.1,1.57763 -6.8,2.56364 -10.7,2.66225z" fill="#2F2833" id="svg_45"/>
   </g>
   <g stroke="null" id="svg_46">
    <path stroke="null" class="st26" d="m290.6,429.74427c-9.9,0.29581 -17.5,8.77555 -17.5,18.53711l0,6.21191c0,6.0147 4.9,10.84618 11,10.84618l14.1,0c6.1,0 11,-4.83148 11,-10.84618l0,-7.00072c0,-9.95877 -8.4,-18.04411 -18.6,-17.7483z" fill="url(#SVGID_24_)" id="svg_47"/>
    <path stroke="null" class="st8" d="m291.9,456.16952c-0.1,-3.25386 -0.1,-2.76085 -0.2,-5.6203c4,-0.1972 7.8,-2.07064 10.6,-3.74686l2.3,-1.47903l-2.2,1.28182c-2.8,1.57763 -6.6,2.56364 -10.6,2.66225c-0.2,-5.9161 -0.5,-13.50843 -0.5,-13.50843l-0.6,16.46648c-4,-0.0986 -7.7,-0.98602 -10.5,-2.66225l-2.2,-1.28182l2.3,1.47903c2.7,1.67623 6.5,3.64826 10.5,3.74686l-0.2,5.6203c-3.9,-0.0986 -7.5,-1.08462 -10.3,-2.66225l-2.2,-1.28182l2.3,1.47903c2.7,1.67623 6.3,3.54966 10.2,3.74686l-0.2,8.08534l2.1,0c-0.1,-2.56364 -0.2,-7.88813 -0.3,-11.04339c3.9,-0.1972 7.6,-2.07064 10.3,-3.74686l2.3,-1.47903l-2.2,1.28182c-3.1,1.57763 -6.8,2.56364 -10.7,2.66225z" fill="#2F2833" id="svg_48"/>
   </g>
   <g stroke="null" id="svg_49">
    <path stroke="null" class="st27" d="m342.4,451.14084c-7.6,0.1972 -13.5,6.80352 -13.5,14.29724l0,4.83148c0,4.63428 3.8,8.38114 8.5,8.38114l10.9,0c4.7,0 8.5,-3.74686 8.5,-8.38114l0,-5.32449c0,-7.78953 -6.5,-14.00144 -14.4,-13.80423z" fill="url(#SVGID_25_)" id="svg_50"/>
    <path stroke="null" class="st8" d="m343.4,471.64998c-0.1,-2.56364 -0.1,-2.16924 -0.2,-4.43708c3.1,-0.0986 6.1,-1.57763 8.2,-2.95805l1.8,-1.08462l-1.7,0.98602c-2.2,1.28182 -5.2,1.97203 -8.2,2.07064c-0.2,-4.63428 -0.4,-10.45178 -0.4,-10.45178l-0.4,12.71962c-3.1,-0.0986 -6,-0.78881 -8.2,-2.07064l-1.7,-0.98602l1.8,1.08462c2.1,1.28182 5,2.85945 8.1,2.95805l-0.2,4.43708c-3,-0.0986 -5.8,-0.78881 -8,-2.07064l-1.7,-0.98602l1.8,1.08462c2.1,1.28182 4.9,2.76085 7.9,2.95805l-0.2,6.31051l1.6,0c-0.1,-1.97203 -0.2,-6.1133 -0.3,-8.57835c3.1,-0.0986 5.9,-1.67623 8,-2.95805l1.8,-1.08462l-1.7,0.98602c-2.2,1.28182 -5.1,1.97203 -8.1,2.07064z" fill="#2F2833" id="svg_51"/>
   </g>
   <g stroke="null" id="svg_52"/>
   <g stroke="null" id="svg_55">
    <path stroke="null" class="st29" d="m558.7,451.14084c-7.6,0.1972 -13.5,6.80352 -13.5,14.29724l0,4.83148c0,4.63428 3.8,8.38114 8.5,8.38114l10.9,0c4.7,0 8.5,-3.74686 8.5,-8.38114l0,-5.32449c0,-7.78953 -6.5,-14.00144 -14.4,-13.80423z" fill="url(#SVGID_27_)" id="svg_56"/>
    <path stroke="null" class="st8" d="m559.7,471.64998c-0.1,-2.56364 -0.1,-2.16924 -0.2,-4.43708c3.1,-0.0986 6.1,-1.57763 8.2,-2.95805l1.8,-1.08462l-1.7,0.98602c-2.2,1.28182 -5.2,1.97203 -8.2,2.07064c-0.2,-4.63428 -0.4,-10.45178 -0.4,-10.45178l-0.4,12.71962c-3.1,-0.0986 -6,-0.78881 -8.2,-2.07064l-1.7,-0.98602l1.8,1.08462c2.1,1.28182 5,2.85945 8.1,2.95805l-0.2,4.43708c-3,-0.0986 -5.8,-0.78881 -8,-2.07064l-1.7,-0.98602l1.8,1.08462c2.1,1.28182 4.9,2.76085 7.9,2.95805l-0.2,6.31051l1.6,0c-0.1,-1.97203 -0.2,-6.1133 -0.3,-8.57835c3.1,-0.0986 5.9,-1.67623 8,-2.95805l1.8,-1.08462l-1.7,0.98602c-2.2,1.28182 -5.1,1.97203 -8.1,2.07064z" fill="#2F2833" id="svg_57"/>
   </g>
   <polygon stroke="null" class="st30" points="342,481.21435546875 330.8999938964844,496.3003845214844 334.6000061035156,496.3003845214844 343.6000061035156,481.21435546875 " fill="url(#SVGID_28_)" id="svg_58"/>
   <polygon stroke="null" class="st31" points="290.20001220703125,468.4947509765625 279.1000061035156,483.5807800292969 282.79998779296875,483.5807800292969 292.20001220703125,468.4947509765625 " fill="url(#SVGID_29_)" id="svg_59"/>
   <polygon stroke="null" class="st32" points="367.6000061035156,476.8758850097656 356.5,491.9619140625 360.20001220703125,491.9619140625 369.70001220703125,476.8758850097656 " fill="url(#SVGID_30_)" id="svg_60"/>
   <polygon stroke="null" class="st33" points="395.1000061035156,481.21435546875 384,496.3003845214844 387.70001220703125,496.3003845214844 396.70001220703125,481.21435546875 " fill="url(#SVGID_31_)" id="svg_61"/>
   <polygon stroke="null" class="st34" points="559.9000244140625,481.21435546875 571,496.3003845214844 567.2999877929688,496.3003845214844 558.2999877929688,481.21435546875 " fill="url(#SVGID_32_)" id="svg_62"/>
   <path stroke="null" class="st35" d="m436.3,466.7199c6.3,7.09932 14.5,11.635 22.6,15.38186c8.2,3.74686 16.6,6.60631 25,9.16996c16.8,5.22589 33.5,9.56436 49.8,14.59305c16.2,5.02869 32.1,10.55038 46.4,17.9455c14.3,7.29652 26.9,16.36788 35.5,27.50987c4.4,5.52169 7.7,11.5364 10.2,17.8469c2.7,7.00072 4.8,14.19864 6,21.10076c0.7,4.04267 1.1,7.98674 1.1,11.8322l42.3,0c-0.9,-7.49373 -2.5,-14.79025 -4.7,-21.59377c-3.1,-9.56436 -7.1,-18.43851 -11.7,-26.81966c-5,-9.07135 -11.3,-17.35389 -18.6,-24.45322c-14.6,-14.19864 -32.2,-23.17139 -49.6,-29.4819c-34.9,-12.32521 -70,-15.08606 -103.5,-21.00216c-8.4,-1.47903 -16.6,-3.25386 -24.6,-5.6203c-7.9,-2.46504 -15.6,-5.6203 -21.4,-10.74758c-2.9,-2.56364 -5.4,-5.8175 -6.9,-9.26856c-1.5,-3.45106 -1.5,-7.29652 0.3,-10.74758c1.2,-2.36644 3.2,-4.53568 5.4,-6.40911l-3.7,0c-1.7,1.28182 -3.3,2.85945 -4.6,4.73288c-1.3,1.97203 -2.3,4.23987 -2.7,6.60631c-0.4,2.46504 -0.1,4.93008 0.5,7.19792c1.5,4.63428 3.9,8.67695 6.9,12.22661z" fill="url(#SVGID_33_)" id="svg_63"/>
   <path stroke="null" class="st36" d="m638.5,530.61379c7.3,7.09932 13.5,15.48046 18.5,24.55182c4.5,8.47974 8.5,17.25529 11.5,26.91826c2,6.31051 3.5,13.01542 4.4,19.91754l2.4,0c-0.9,-7.49373 -2.5,-14.79025 -4.7,-21.59377c-3.1,-9.56436 -7.1,-18.43851 -11.7,-26.81966c-5,-9.07135 -11.3,-17.35389 -18.6,-24.45322c-14.6,-14.19864 -32.2,-23.17139 -49.6,-29.4819c-34.9,-12.32521 -69.9,-15.08606 -103.5,-21.00216c33.3,6.1133 67.4,9.56436 102.1,22.08678c17.2,6.40911 34.7,15.48046 49.2,29.87631z" fill="#0D5770" id="svg_64"/>
   <path stroke="null" class="st36" d="m439.9,462.28282c5.8,5.22589 13.5,8.38114 21.3,10.94479c7.9,2.46504 16.9,3.84547 25.2,5.42309c0.2,0 0.3,0.0986 0.5,0.0986c-8.4,-1.47903 -16.6,-3.25386 -24.5,-5.6203c-7.9,-2.46504 -15.6,-5.6203 -21.4,-10.74758c-2.9,-2.56364 -5.4,-5.8175 -6.9,-9.26856c-1.5,-3.45106 -1.5,-7.29652 0.3,-10.74758c1.2,-2.36644 3.2,-4.53568 5.4,-6.40911l-0.8,0c-2.3,1.87343 -4.2,3.94407 -5.5,6.31051c-1.9,3.45106 -1.8,7.29652 -0.4,10.74758c1.5,3.35246 4,6.70491 6.8,9.26856z" fill="#0D5770" id="svg_65"/>
  </g>
  <polygon class="st37 star1" points="698.7,57.6 697,57.3 696.3,55.8 695.5,57.3 693.8,57.6 695.1,58.8 694.8,60.5 696.3,59.7 697.8,60.5   697.5,58.8 " fill="#FFFFFF" id="svg_66"/>
  <polygon class="st37 star2" points="177.2,70.3 175.5,70.1 174.7,68.5 174,70.1 172.3,70.3 173.5,71.5 173.2,73.2 174.7,72.4 176.2,73.2   175.9,71.5 " fill="#FFFFFF" id="svg_67"/>
  <polygon class="st37 star3" points="440.5,31.9 438.8,31.7 438.1,30.2 437.3,31.7 435.6,31.9 436.8,33.1 436.6,34.8 438.1,34 439.6,34.8   439.3,33.1 " fill="#FFFFFF" id="svg_68"/>
  <polygon class="st37 star4" points="299.3,34.3 297.6,34 296.9,32.5 296.1,34 294.4,34.3 295.6,35.5 295.4,37.1 296.9,36.3 298.4,37.1   298.1,35.5 " fill="#FFFFFF" id="svg_69"/>
  <polygon class="st37 star5" points="86.3,59.9 84.6,59.7 83.9,58.1 83.1,59.7 81.4,59.9 82.6,61.1 82.3,62.8 83.9,62 85.4,62.8 85.1,61.1   " fill="#FFFFFF" id="svg_70"/>
  <polygon class="st37 star6" points="45.6,20.5 43.9,20.2 43.2,18.7 42.4,20.2 40.7,20.5 41.9,21.7 41.6,23.3 43.2,22.5 44.7,23.3   44.4,21.7 " fill="#FFFFFF" id="svg_71"/>
  <polygon class="st37 star7" points="586.6,49.8 584.9,49.5 584.2,48 583.4,49.5 581.7,49.8 582.9,50.9 582.7,52.6 584.2,51.8 585.7,52.6   585.4,50.9 " fill="#FFFFFF" id="svg_72"/>
  <polygon class="st37 star8" points="157.4,132 155.8,131.8 155,130.3 154.2,131.8 152.6,132 153.8,133.2 153.5,134.9 155,134.1   156.5,134.9 156.2,133.2 " fill="#FFFFFF" id="svg_73"/>
  <polygon class="st37 star9" points="45.6,115.5 43.9,115.3 43.2,113.8 42.4,115.3 40.7,115.5 41.9,116.7 41.6,118.4 43.2,117.6   44.7,118.4 44.4,116.7 " fill="#FFFFFF" id="svg_74"/>
  <polygon class="st37 star10" points="629.5,142 627.8,141.7 627.1,140.2 626.3,141.7 624.6,142 625.8,143.2 625.5,144.9 627.1,144.1   628.6,144.9 628.3,143.2 " fill="#FFFFFF" id="svg_75"/>
  <polygon class="st37 star1" points="683.1,152.4 681.4,152.1 680.7,150.6 679.9,152.1 678.2,152.4 679.4,153.5 679.2,155.2 680.7,154.4   682.2,155.2 681.9,153.5 " fill="#FFFFFF" id="svg_76"/>
  <polygon class="st37 star2" points="563.7,182.7 562,182.5 561.3,181 560.5,182.5 558.8,182.7 560,183.9 559.8,185.6 561.3,184.8   562.8,185.6 562.5,183.9 " fill="#FFFFFF" id="svg_77"/>
 </g>
</svg>