<svg width="1466.8" height="615.52" xmlns="http://www.w3.org/2000/svg" xmlns:xlink="http://www.w3.org/1999/xlink">
 <defs>
  <linearGradient y2="0.000052" x2="0.499828" y1="1.000136" x1="0.499828" id="b4d6f2bc-ae5e-476c-81ed-6eb215cdf2b8">
   <stop stop-opacity="0.25" stop-color="gray" offset="0"/>
   <stop stop-opacity="0.12" stop-color="gray" offset="0.54"/>
   <stop stop-opacity="0.1" stop-color="gray" offset="1"/>
  </linearGradient>
  <linearGradient xlink:href="#b4d6f2bc-ae5e-476c-81ed-6eb215cdf2b8" y2="486.89" x2="266.19" y1="487.11" x1="266.19" id="9c7f1c1e-55bc-40cd-85e2-0f597ed8a8ed"/>
  <linearGradient xlink:href="#b4d6f2bc-ae5e-476c-81ed-6eb215cdf2b8" y2="271" x2="252.55" y1="605" x1="252.55" id="9ac4e148-2e83-4d81-ad56-620a328cd147"/>
  <linearGradient xlink:href="#b4d6f2bc-ae5e-476c-81ed-6eb215cdf2b8" y2="195" x2="852.66" y1="602" x1="852.66" id="2bd42fb4-2e8b-436b-a616-1dc6bfdc374d"/>
 </defs>
 <title>celebration</title>
 <g>
  <title>background</title>
  <rect fill="none" id="canvas_background" height="617.52" width="1468.8" y="-1" x="-1"/>
 </g>
 <g>
  <title>Layer 1</title>
  <path id="svg_3" fill="url(#b4d6f2bc-ae5e-476c-81ed-6eb215cdf2b8)" d="m869.9,200.93c-4.27,-11.13 -15.28,-37.29 -22.53,-32.1c-9.16,6.56 9.16,35.54 9.16,35.54c0.52,5.32 -9.78,16.39 -15.3,21.91c0,-0.44 0,-0.69 0,-0.69a2.4,2.4 0 0 1 -0.24,0.6l-0.46,-0.25a3,3 0 0 1 -0.65,1.19c0,-0.75 -0.05,-1.19 -0.05,-1.19c-1.06,4.49 -19.56,10.18 -19.56,10.18s-0.5,0 -1.36,0c-5.14,0 -18.52,-1.16 -24.72,-11.08a54.86,54.86 0 0 0 -12.13,-14.15a10.33,10.33 0 0 0 -5.75,-2.18c-17.13,-1.1 -31,-9.77 -33.77,-11.62l-0.51,-0.35l-0.11,0.32c-0.65,-0.93 -1.28,-1.92 -1.87,-2.94l0,0l-0.3,-0.55a25.12,25.12 0 0 0 13.85,-22.34c0,-0.17 0,-0.35 0,-0.52a17.11,17.11 0 0 0 2.3,-8.57l0,-3l3.91,-3.48c1.79,-1.59 3.64,-3.27 4.55,-5.46a6.47,6.47 0 0 0 0.48,-2.8a4.85,4.85 0 0 0 -1.84,-4.34c-3,-2.07 -8,0 -10.17,-2.88c-1,-1.3 -0.82,-3.07 -1.31,-4.6c-1,-3.11 -4.6,-4.79 -7.93,-4.84s-6.52,1.16 -9.72,2.07a57.07,57.07 0 0 1 -20.7,1.94a13.52,13.52 0 0 0 -5.67,0.2a7.81,7.81 0 0 0 -4.6,5.35a12.57,12.57 0 0 0 -0.44,2.74a17.24,17.24 0 0 0 -4.34,11.41l0,7.69a17.23,17.23 0 0 0 4.15,11.19a25,25 0 0 0 10.47,18.24q0,0.3 0,0.61l0.13,0.08a41.35,41.35 0 0 1 -1.1,7.07l0,-0.51s-14,7.45 -29,7.63l-1.65,0a11.17,11.17 0 0 0 -8,3c-4.44,4.18 -12.22,10.79 -17,10.79c-1,0 -26.24,4.93 -30.42,5.75l-7.81,-7.65l-0.24,0.45l-0.46,-0.45a19,19 0 0 0 -2.54,0.37c-4,-4.74 -12,-15.76 -13.85,-30.55c0,0 17.27,-19.67 10.92,-38c-5.42,-15.62 -20.35,17.86 -24.59,27.95a8.06,8.06 0 0 0 -0.26,5.55l14.03,45.22a21.21,21.21 0 0 0 -1.11,11l-0.16,0l10.22,13.11s7.69,3.28 19.72,3.22a68.94,68.94 0 0 0 25.74,-4.94l2.37,0l-0.45,0.17l12.17,0l7.74,23.41c-0.26,2.13 -4,31.86 -7,38.51a16.71,16.71 0 0 0 -1.18,7a53.44,53.44 0 0 0 2.23,13.55l6.78,-0.25l-0.26,0.53c-5.74,11.77 -15.33,32.74 -21,52.34l-9.87,20l7.4,89.7l0,0l0.3,0l0,0l0.57,0.09l0,0c0.8,0.12 2,0.3 3.58,0.5l-0.58,1l-16.31,27s-11.63,23.81 14.1,19.32c0,0 9.51,-2.76 13.39,-19l16.92,-15.87s0.79,-10.54 -4,-14.75c-0.3,-4.87 -1.06,-19.09 0.11,-22.51c1.41,-4.14 -6,-51.75 -6,-51.75s26.78,-55.55 43,-56.93a8.89,8.89 0 0 1 3.51,0.46c13.33,4.34 29.48,36.57 34.23,46.6l0,0l0.22,0.46l0,0.09l0.18,0.39l0,0.11l0.16,0.34l0,0.09l0.14,0.31l0,0.07l0.12,0.25l0,0.1l0.09,0.19l0,0.08l0.06,0.14l0,0.08l0,0.09l0,0l0.05,0.12l2.11,62.45l0,0l0,0l0,0l0.21,0.11l0,0l0.1,0l-0.18,1.29l-0.92,6.45s11.63,24.5 10.92,27.6s7.75,15.53 19.73,12.08s4.85,-22.9 4.85,-22.9l-11.54,-23.78l-0.51,-1.06a22.68,22.68 0 0 0 3.24,-2.41s-3.52,-25.53 0,-31.05s4.58,-30.71 4.58,-30.71s-2.47,-17.25 -6.7,-24.84l-17.72,-63.25c5.31,4.94 9.44,6.87 12.89,6.74l0.57,0a8.61,8.61 0 0 0 4.34,-1.08a12.23,12.23 0 0 0 2,-1.41a3.16,3.16 0 0 0 0.33,-0.33l0,0c4.93,-4.14 -5.64,-20.36 -11.63,-30c-5.77,-9.3 2.18,-34.57 2.78,-36.45a9.54,9.54 0 0 1 1.71,-1a10.55,10.55 0 0 1 3.92,-0.85c5.74,0.2 12.8,3.5 21.54,5.16a101.62,101.62 0 0 0 18.39,1.43l0.36,0c2.45,0 4.67,-0.05 6.47,-0.12a10.93,10.93 0 0 0 4.7,-1.27l0,0a14.19,14.19 0 0 0 3.34,-2.7l15.34,-17.33l-0.4,0.19a8.62,8.62 0 0 0 0,-6.1l16.21,-28a10.65,10.65 0 0 0 0.79,-9.23z"/>
  <path id="svg_4" fill="#444176" d="m687.78,506.9l-16.33,15.65c-3.74,16 -12.93,18.71 -12.93,18.71c-24.83,4.42 -13.61,-19 -13.61,-19l15.75,-26.65l1.94,-3.29s11.23,-3.4 18.71,-1.36a6.4,6.4 0 0 1 2.55,1.38c4.69,4.07 3.92,14.56 3.92,14.56z"/>
  <path id="svg_5" fill="#444176" d="m788.47,520.85c-11.57,3.4 -19.73,-8.84 -19,-11.91s-10.57,-27.18 -10.57,-27.18l0.88,-6.36l0.82,-5.89l19,1.36l1.79,3.76l11.14,23.45s7.51,19.37 -4.06,22.77z"/>
  <path id="svg_6" opacity="0.1" d="m684.04,495c-1.79,3.07 -16.3,1.52 -23.37,0.56l1.94,-3.29s11.23,-3.4 18.71,-1.36a6.4,6.4 0 0 1 2.55,1.38c0.1,1.66 0.17,2.71 0.17,2.71z"/>
  <path id="svg_7" opacity="0.1" d="m781.41,474.61c-9.73,6.48 -20.09,1.58 -21.65,0.77l0.82,-5.89l19,1.36l1.83,3.76z"/>
  <path id="svg_8" fill="#565387" d="m784.05,440.57c-3.4,5.44 0,30.62 0,30.62c-11.23,10.21 -24.49,2.72 -24.49,2.72l-2,-61.57s-22.11,-50.69 -37.76,-49.33s-41.5,56.13 -41.5,56.13s7.14,46.94 5.78,51s0,23.81 0,23.81c-2.38,4.08 -27.21,0 -27.21,0l-7.14,-88.45l9.48,-19.74c5.45,-19.32 14.71,-40 20.25,-51.6c2.75,-5.77 4.59,-9.29 4.59,-9.29l18.1,-3.77l58.75,-12.18l21.11,76.84c4.08,7.48 6.46,24.49 6.46,24.49s-1.02,24.88 -4.42,30.32z"/>
  <g id="svg_9" opacity="0.1">
   <path id="svg_10" d="m765,473.91l-2,-61.57s-22.11,-50.69 -37.76,-49.33a8.52,8.52 0 0 0 -2.05,0.46c15.26,5.07 34.37,48.87 34.37,48.87l2,61.57a24,24 0 0 0 13.53,2.47a24.07,24.07 0 0 1 -8.09,-2.47z"/>
   <path id="svg_11" d="m662.27,493.98l-7.14,-88.45l9.52,-19.77c5.45,-19.32 14.71,-40 20.25,-51.6c2.75,-5.77 4.59,-9.29 4.59,-9.29l18.1,-3.77l53.63,-11.15l-0.29,-1.07l-58.78,12.22l-18.1,3.77s-1.84,3.52 -4.59,9.29c-5.56,11.6 -14.8,32.32 -20.25,51.6l-9.52,19.73l7.14,88.45s13.56,2.23 21.6,1.74a160.66,160.66 0 0 1 -16.16,-1.7z"/>
  </g>
  <path id="svg_12" fill="#ced2df" d="m620.9,219.97s-19.39,1 -16.67,21.43l5.44,0.68l8.16,-8.84l4.08,-7.48l0,-1.7l-1.01,-4.09z"/>
  <path id="svg_13" opacity="0.1" d="m620.9,219.97s-19.39,1 -16.67,21.43l5.44,0.68l8.16,-8.84l4.08,-7.48l0,-1.7l-1.01,-4.09z"/>
  <path id="svg_14" fill="#ced2df" d="m836.61,227.45s16,8.5 11.91,18.37l-5.1,2l-6.8,-3.74l-1,-8.84l0.68,-6.12l0.31,-1.67z"/>
  <path id="svg_15" opacity="0.1" d="m836.61,227.45s16,8.5 11.91,18.37l-5.1,2l-6.8,-3.74l-1,-8.84l0.68,-6.12l0.31,-1.67z"/>
  <rect id="svg_16" fill="#88455e" ry="21.09" rx="21.09" height="42.18" width="55.79" y="139.68" x="699.18"/>
  <path id="svg_17" fill="#ec8c9c" d="m620.77,222.86l-11.91,19l-1,-3.38l-16.18,-52.72a8.11,8.11 0 0 1 0.25,-5.47c4.09,-9.94 18.51,-43 23.74,-27.55c6.12,18 -10.55,37.42 -10.55,37.42c1.9,15.76 10.75,27.18 14.23,31.14c0.88,1.03 1.42,1.56 1.42,1.56z"/>
  <path id="svg_18" fill="#ec8c9c" d="m834.06,231.02s18.71,-17.69 18,-24.83c0,0 -17.69,-28.57 -8.84,-35c7,-5.12 17.63,20.68 21.75,31.65a10.7,10.7 0 0 1 -0.71,9l-22.36,39.59l-7.84,-20.41z"/>
  <path id="svg_19" fill="#ec8c9c" d="m712.95,181.7s3.4,21.77 -6.46,29.94s28.24,8.12 28.24,8.12l13.61,-12.59s-15.65,-14.63 -10.89,-25.51l-24.5,0.04z"/>
  <path id="svg_20" opacity="0.1" d="m712.27,206.53s14.63,10.89 29.25,-1.36l23.81,49.33l-1.36,60.21s-49.33,25.51 -69.74,9.87s-3.4,-23.81 -3.4,-23.81l-4.76,-46.26l5.1,-29.94s9.18,-14.29 9.87,-14.29s11.23,-3.75 11.23,-3.75z"/>
  <path id="svg_21" fill="#ebf1f6" d="m712.27,205.85s14.63,10.91 29.26,-1.36l23.81,49.33l-1.36,60.21s-49.33,25.51 -69.74,9.87s-3.4,-23.81 -3.4,-23.81l-4.76,-46.26l5.1,-29.94s9.18,-14.29 9.87,-14.29s11.22,-3.75 11.22,-3.75z"/>
  <path id="svg_22" opacity="0.1" d="m712.27,200.76s-13.87,7.9 -28.93,7.51a10.66,10.66 0 0 0 -7.69,2.94c-4.29,4.12 -11.8,10.64 -16.45,10.64c-1,0 -29.94,5.78 -29.94,5.78l-7.65,-7.65s-11.4,22.28 -16.84,21.26l9.87,12.93s18.71,8.16 43.2,-1.7l14.29,0l7.48,23.13s-3.74,31.3 -6.8,38.1s1,20.07 1,20.07l26.87,-1s1.36,-13.27 3.4,-15s-7.14,-60.21 -7.14,-60.21s-6.12,-33 16.33,-44.9l-1,-11.9z"/>
  <path id="svg_23" opacity="0.1" d="m702.14,321.14a88.81,88.81 0 0 0 -2.11,12.27l-20.57,0.78c2.75,-5.77 4.59,-9.29 4.59,-9.29l18.09,-3.76z"/>
  <path id="svg_24" opacity="0.1" d="m620.77,222.86l-11.91,19l-1,-3.38c4.37,-4.34 9.49,-13.41 11.53,-17.19c0.84,1.04 1.38,1.57 1.38,1.57z"/>
  <path id="svg_25" fill="#ced2df" d="m712.27,200.76s-14.56,7.9 -29.61,7.51a10.66,10.66 0 0 0 -7.69,2.94c-4.29,4.12 -11.8,10.64 -16.45,10.64c-1,0 -29.94,5.78 -29.94,5.78l-7.68,-7.66s-11.4,22.28 -16.84,21.26l9.87,12.93s18.71,8.16 43.2,-1.7l14.29,0l7.48,23.12s-3.74,31.3 -6.8,38.1s1,20.07 1,20.07l26.87,-1s1.36,-13.27 3.4,-15s-7.14,-60.21 -7.14,-60.21s-6.12,-33 16.33,-44.9l-0.29,-11.88z"/>
  <path id="svg_26" opacity="0.1" d="m741.53,198.7s13.88,10.58 32.41,11.8a9.85,9.85 0 0 1 5.55,2.15a53.72,53.72 0 0 1 11.71,14c7.48,12.25 25.85,10.89 25.85,10.89s17.86,-5.61 18.88,-10c0,0 0.51,24 11.74,18.2l-14.77,17.02a10.42,10.42 0 0 1 -7.45,3.59c-5.55,0.22 -15.19,0.29 -23.33,-1.29c-12.25,-2.38 -21.09,-8.16 -27.55,-3.06c0,0 -8.5,26.53 -2.72,36.06s16,25.51 11.23,29.6s-10.55,3.74 -20.07,-6.12s-10.55,-26.53 -10.55,-26.53l2.38,-42.86s-9.18,-32.32 -18,-38.78l4.69,-14.67z"/>
  <path id="svg_27" opacity="0.1" d="m849.02,245.31l-14.81,17.09a10.41,10.41 0 0 1 -3.57,2.66l0,0a10.37,10.37 0 0 1 -3.86,0.91c-5.55,0.23 -15.19,0.3 -23.33,-1.29c-11.46,-2.23 -19.94,-7.43 -26.28,-3.92a9.3,9.3 0 0 0 -1.28,0.85s-8.5,26.53 -2.72,36.06s16,25.51 11.23,29.6a11,11 0 0 1 -2.66,1.73c-4.28,1.93 -9.59,0.26 -17.41,-7.85c-9.52,-9.87 -10.55,-26.53 -10.55,-26.53l2.38,-42.86s-9.18,-32.32 -18,-38.78l3.89,-13.95c2.68,1.82 16.06,10.37 32.6,11.46a9.85,9.85 0 0 1 5.55,2.15a53.76,53.76 0 0 1 11.71,14c7.48,12.25 25.85,10.89 25.85,10.89a99.27,99.27 0 0 0 12.87,-5.12l0,0c2.61,-1.28 4.91,-2.68 6,-4a3,3 0 0 0 0.65,-1.2s0.52,23.88 11.74,18.1z"/>
  <path id="svg_28" fill="#ced2df" d="m848.34,245.65l-14.8,17.11a10.41,10.41 0 0 1 -2.88,2.32l0,0a10.38,10.38 0 0 1 -4.54,1.25c-5.55,0.23 -15.19,0.3 -23.33,-1.29c-11.05,-2.15 -19.34,-7.07 -25.59,-4.26a9.25,9.25 0 0 0 -2,1.19s-8.5,26.53 -2.72,36.06s16,25.51 11.23,29.6a11.8,11.8 0 0 1 -2,1.39c-4.4,2.43 -9.84,1 -18.09,-7.51c-9.52,-9.87 -10.55,-26.53 -10.55,-26.53l2.38,-42.86s-9.18,-32.32 -18,-38.78l4.08,-14.63l0.49,0.34c2.68,1.82 16.06,10.37 32.6,11.46a9.85,9.85 0 0 1 5.55,2.15a53.76,53.76 0 0 1 11.71,14c7.48,12.25 25.85,10.89 25.85,10.89a99.27,99.27 0 0 0 12.87,-5.12l0,0c3.09,-1.58 5.61,-3.31 6,-4.89c0,0 0,0.31 0,0.86c0.3,4.13 1.8,22.36 11.74,17.25z"/>
  <path id="svg_29" opacity="0.1" d="m737.75,182.21l-25,0a61.18,61.18 0 0 1 0.47,12a25.7,25.7 0 0 0 26.42,1.9c-2.4,-4.44 -3.86,-9.48 -1.89,-13.9z"/>
  <circle id="svg_30" fill="#ec8c9c" r="24.83" cy="173.53" cx="727.92"/>
  <path id="svg_31" opacity="0.1" d="m722.76,169.11c2.77,-0.33 5.54,-1.31 8.27,-0.76c2.48,0.5 4.59,2.21 7.07,2.73c4.78,1 9.22,-2.52 12.83,-5.8l7.8,-7.1c1.73,-1.57 3.51,-3.22 4.4,-5.38s0.58,-5 -1.32,-6.36c-2.85,-2 -7.76,0 -9.82,-2.84c-0.93,-1.28 -0.79,-3 -1.27,-4.53c-1,-3.06 -4.44,-4.73 -7.66,-4.77s-6.3,1.14 -9.38,2a54,54 0 0 1 -20,1.91a12.78,12.78 0 0 0 -5.47,0.19a7.65,7.65 0 0 0 -4.44,5.27c-1.54,5.44 1.09,14.21 3.73,19.08s9.99,7.01 15.26,6.36z"/>
  <path id="svg_32" fill="#88455e" d="m722.76,168.43c2.77,-0.33 5.54,-1.31 8.27,-0.76c2.48,0.5 4.59,2.21 7.07,2.73c4.78,1 9.22,-2.52 12.83,-5.8l7.8,-7.1c1.73,-1.57 3.51,-3.22 4.4,-5.38s0.58,-5 -1.32,-6.36c-2.85,-2 -7.76,0 -9.82,-2.84c-0.93,-1.28 -0.79,-3 -1.27,-4.53c-1,-3.06 -4.44,-4.73 -7.66,-4.77s-6.3,1.14 -9.38,2a54,54 0 0 1 -20,1.91a12.78,12.78 0 0 0 -5.47,0.19a7.65,7.65 0 0 0 -4.44,5.27c-1.54,5.44 1.09,14.21 3.73,19.08s9.99,6.96 15.26,6.36z"/>
  <path id="svg_33" opacity="0.1" d="m679.45,275.76s5.44,0.68 8.16,4.08s7.48,4.42 7.48,4.42"/>
  <path id="svg_34" opacity="0.1" d="m630.46,230.85s4.44,9.91 1.7,10.91s-1.7,8.16 -1.7,8.16"/>
  <g id="svg_35" opacity="0.1">
   <path id="svg_36" d="m631.99,227.45s28.91,-5.78 29.91,-5.78c4.66,0 12.16,-6.52 16.45,-10.64a10.5,10.5 0 0 1 4.66,-2.59l-0.37,0a10.66,10.66 0 0 0 -7.69,2.94c-4.29,4.12 -11.8,10.64 -16.45,10.64c-0.81,0 -19.31,3.67 -26.82,5.16l0.31,0.27z"/>
   <path id="svg_37" d="m712.31,202.19l0,-1.27a72.18,72.18 0 0 1 -22.16,7.09a68.48,68.48 0 0 0 22.16,-5.82z"/>
   <path id="svg_38" d="m676.56,333.58s-4.08,-13.27 -1,-20.07s6.8,-38.1 6.8,-38.1l-7.46,-23.13l-14.33,0l-0.87,0.34l11.75,0l7.45,23.14s-3.74,31.3 -6.8,38.1s1,20.07 1,20.07l26.87,-1l0,-0.21l-23.41,0.86z"/>
  </g>
  <g id="svg_39" opacity="0.1">
   <path id="svg_40" d="m784.05,322.19a11.8,11.8 0 0 1 -2,1.39c-4.4,2.43 -9.84,1 -18.09,-7.51c-7.56,-7.83 -9.76,-20 -10.35,-24.61l-0.2,3.52s1,16.67 10.55,26.53c8.25,8.54 13.69,9.94 18.09,7.51a11.8,11.8 0 0 0 2,-1.39c1.43,-1.23 1.51,-3.54 0.76,-6.42a3.15,3.15 0 0 1 -0.76,0.98z"/>
   <path id="svg_41" d="m843.53,246.16l-9.63,11.13a10.41,10.41 0 0 1 -2.88,2.32l0,0a10.38,10.38 0 0 1 -4.54,1.25c-5.55,0.23 -15.19,0.3 -23.33,-1.29c-11.05,-2.15 -19.34,-7.07 -25.59,-4.26a9.25,9.25 0 0 0 -2,1.19s-5.49,17.14 -4.65,28.81c0.65,-10.91 4.65,-23.37 4.65,-23.37a9.25,9.25 0 0 1 2,-1.19c6.26,-2.81 14.54,2.11 25.59,4.26c8.14,1.58 17.77,1.51 23.33,1.29a10.38,10.38 0 0 0 4.54,-1.25l0,0a10.41,10.41 0 0 0 2.88,-2.29l14.81,-17.09a5.83,5.83 0 0 1 -5.18,0.49z"/>
  </g>
  <path id="svg_42" fill="url(#9c7f1c1e-55bc-40cd-85e2-0f597ed8a8ed)" d="m219.64,355.65a0.77,0.77 0 0 0 0.91,0.12a3.1,3.1 0 0 1 -0.91,-0.12z"/>
  <path id="svg_43" fill="url(#9ac4e148-2e83-4d81-ad56-620a328cd147)" d="m321.55,190c-1.8,-0.52 -4.37,-1.37 -7.46,-2.45a39.12,39.12 0 0 0 6.91,-13.92l-0.26,0.1c0.09,-0.31 0.18,-0.61 0.26,-0.93c-5.93,2.41 -12.49,-1.67 -16.67,-6.91s-7,-11.74 -11.58,-16.56a53,53 0 0 0 -6.14,-5.29c-1.35,-1 -2.8,-2.13 -4.45,-2.18c-2.67,-0.08 -4.76,2.54 -7.33,3.31a10,10 0 0 1 -5.11,-0.19c-6.63,-1.52 -13,-4.33 -19.77,-5.07a23.17,23.17 0 0 0 -10.73,1.21c-3.4,1.29 -4.95,3.86 -7.7,5.92c-3,2.21 -8.86,2.16 -12.35,2.55a88.5,88.5 0 0 1 -12.76,0.53a29.87,29.87 0 0 0 -7.34,0.27c-5.07,1.11 -9.14,5.14 -12.94,9a6.67,6.67 0 0 0 -2.14,3.35a4.23,4.23 0 0 0 0,1.11a7.21,7.21 0 0 0 0.51,2.95a39,39 0 0 0 4.91,9.77c1.55,2.22 3.36,4.31 4.24,6.94a13.47,13.47 0 0 1 0.65,4a29.09,29.09 0 0 1 -0.45,4.3a54,54 0 0 1 -3.29,11.45a20.8,20.8 0 0 0 -1.92,6a9.56,9.56 0 0 0 0,1.28c-0.25,6.6 6.41,11.35 7.7,17.91a10.7,10.7 0 0 1 0.19,1.65c-0.14,4.09 -2.47,8.09 -5.91,9.68c0.3,0.12 0.61,0.22 0.92,0.32a8.34,8.34 0 0 1 -0.92,0.5c0.63,0.24 1.27,0.45 1.92,0.62a44.6,44.6 0 0 0 -9.71,12c-11.57,21.54 -89.93,63.73 -89.93,63.73l1.16,0.66l-0.94,0.61c-6.78,4.51 -22.69,17.66 -8.31,34.29c0,0 11.23,-17.72 19.1,-25.27c0.35,-0.34 0.7,-0.65 1,-0.94a2.3,2.3 0 0 1 0.3,1.82l51.52,-28.95s18.31,-12.82 23.42,-15.71a42.15,42.15 0 0 1 11.61,-5l-0.6,0.25a23.52,23.52 0 0 1 5.91,-0.84c9.12,0.14 19,6.82 22.25,33.27c4.36,35.42 2.34,41.81 0.94,42.68a2.57,2.57 0 0 1 -0.51,-0.09a0.87,0.87 0 0 0 0.14,0.1a2.68,2.68 0 0 1 -0.56,-0.1a0.8,0.8 0 0 0 0.76,0.18a0.71,0.71 0 0 0 0.57,-0.07l0,0a5.92,5.92 0 0 0 0.69,0q0,0.49 -0.07,1c-0.07,0 -0.41,0.19 0,0.21l0,0c-0.11,2 -0.1,4.17 0,6.44c-4.53,0.25 -9.06,0.52 -13,0.76l0.35,-1.87l0.16,-0.84c3.48,-0.28 6.78,-1.3 7.17,-4.12c0.85,-6.2 -7.66,-9.51 -14.9,-9.92s-50.66,2.48 -50.66,2.48s-6.51,8.43 14.14,11q0.92,0.48 1.91,1c8.09,4.61 19.06,13.1 24.32,17.28l0.73,0.58l-2.36,1.92c12.77,2.89 25.12,51.69 31.93,74s21.71,21.5 34.06,18.19c11.57,-3.1 13,-36.7 13.19,-40.92l0,-0.43l20.58,25.42l1.56,1.93q0.9,0.47 1.78,0.88c15.58,7.41 32.79,-6.8 27.9,-23c-4.95,-16.33 -12.63,-40.48 -17.75,-50.69c-4.29,-8.55 -9.83,-22.75 -13.19,-31.64a10.68,10.68 0 0 0 1.27,-0.61s-0.08,-0.4 -0.21,-1.13l0.21,-0.11s-5,-25.72 -5.22,-44q0,-0.48 0,-1c0,-0.2 0,-0.4 0,-0.59c3.72,-0.85 6.08,-1.18 6.08,-1.18l0.07,-0.8l-0.43,0.09l2.07,-23.69s7.6,-16.17 1.78,-22.9a14.14,14.14 0 0 1 -3.41,-7c-1,-6.19 0,-16.52 13.55,-25.1c20.86,-13.23 29,-24 29,-24s0.36,-7.72 -12.41,-11.48zm-41.43,16.44l0,-10.95c3.87,-0.19 7.82,0.26 11.71,0a29.63,29.63 0 0 0 5.65,-0.95l0.94,0.65a103,103 0 0 1 -18.3,11.25zm-59.15,171.64c1.53,1.06 3.07,2.16 4.58,3.27c0.94,5.4 1.77,9.21 1.83,9.48a74.86,74.86 0 0 0 -6.41,-12.75z"/>
  <path id="svg_44" fill="#ffbdc6" d="m254.03,369.08l-0.9,4.89l-0.69,3.74l-1.26,6.84l-12.22,8.55s-1.1,-0.94 -2.92,-2.43c-5,-4.12 -15.53,-12.48 -23.26,-17a26,26 0 0 0 -6.39,-2.95l47.64,-1.64z"/>
  <path id="svg_45" opacity="0.1" d="m254.03,369.08l-0.9,4.89a38,38 0 0 1 -8.06,-0.41l-28.51,0.41c-1.35,-0.08 -2.61,-0.19 -3.79,-0.31a26,26 0 0 0 -6.39,-2.95l47.65,-1.63z"/>
  <path id="svg_46" fill="#7679b4" d="m245.07,372.76s14.26,2.44 15.07,-3.67s-7.33,-9.33 -14.24,-9.79s-48.48,2.46 -48.48,2.46s-7.33,9.77 19.14,11.4l28.51,-0.4z"/>
  <path id="svg_47" opacity="0.1" d="m254.03,369.08l-0.9,4.89l-0.69,3.74l-1.26,6.84l-12.22,8.55s-1.1,-0.94 -2.92,-2.43c-5,-4.12 -15.53,-12.48 -23.26,-17a26,26 0 0 0 -6.39,-2.95l47.64,-1.64z"/>
  <path id="svg_48" opacity="0.1" d="m254.03,369.08l-0.9,4.89a38,38 0 0 1 -8.06,-0.41l-28.51,0.41c-1.35,-0.08 -2.61,-0.19 -3.79,-0.31a26,26 0 0 0 -6.39,-2.95l47.65,-1.63z"/>
  <path id="svg_49" opacity="0.1" d="m245.07,372.76s14.26,2.44 15.07,-3.67s-7.33,-9.33 -14.24,-9.79s-48.48,2.46 -48.48,2.46s-7.33,9.77 19.14,11.4l28.51,-0.4z"/>
  <rect id="svg_50" fill="#a66477" height="88.38" width="74.53" y="171.95" x="201.69"/>
  <rect id="svg_51" opacity="0.1" height="88.38" width="74.53" y="171.95" x="201.69"/>
  <path id="svg_52" fill="#ffbdc6" d="m117.33,319.26c-1.23,0.31 -2.79,1.49 -4.54,3.21c-7.53,7.44 -18.27,24.89 -18.27,24.89c-13.76,-16.38 1.47,-29.33 8,-33.78c1.58,-1.08 2.64,-1.66 2.64,-1.66l12.17,7.34z"/>
  <path id="svg_53" fill="#ffbdc6" d="m253.22,199.85s3.67,25.66 16.29,31.77s-16.29,17.51 -16.29,17.51l-39.51,-14.66s22.4,-7.33 17.92,-28.92l21.59,-5.7z"/>
  <path id="svg_54" fill="#ffbdc6" d="m210.9,354.21l-0.9,4.89l-0.69,3.74l-1.26,6.84l-12.22,8.55s-1.1,-0.94 -2.92,-2.43c-5,-4.12 -15.53,-12.48 -23.26,-17a26,26 0 0 0 -6.39,-2.95l47.64,-1.64z"/>
  <path id="svg_55" opacity="0.1" d="m210.9,354.21l-0.9,4.89a38,38 0 0 1 -8.06,-0.41l-28.51,0.41c-1.35,-0.08 -2.61,-0.19 -3.79,-0.31a26,26 0 0 0 -6.39,-2.95l47.65,-1.63z"/>
  <path id="svg_56" fill="#7679b4" d="m201.9,357.88s14.26,2.44 15.07,-3.67s-7.33,-9.37 -14.26,-9.77s-48.47,2.44 -48.47,2.44s-7.33,9.77 19.14,11.4l28.52,-0.4z"/>
  <path id="svg_57" opacity="0.1" d="m209.27,362.85l-1.26,6.84l-12.22,8.55s-1.1,-0.94 -2.92,-2.43l16.16,-13.25l0.24,0.29z"/>
  <path id="svg_58" fill="#7679b4" d="m289.9,456.09q-0.84,-0.41 -1.7,-0.87l-1.49,-1.9l-19.68,-25l0,0.44c-0.13,4.15 -1.55,37.25 -12.61,40.3c-11.81,3.26 -26.07,4.07 -32.58,-17.92s-18.33,-70.05 -30.55,-72.9l18.12,-14.87s12,14 16.9,27.48c-0.18,-0.86 -8.47,-39.57 -1.63,-46.41l59.46,0s9.16,26.14 15.48,39.1c4.9,10.06 12.25,33.84 17,49.93c4.7,15.92 -11.72,29.92 -26.72,22.62z"/>
  <path id="svg_59" opacity="0.1" d="m288.24,351.76c-9.17,5.43 -49.49,3.22 -62.63,2.34l-3.57,-0.26c-0.39,0 0.06,-0.22 0.06,-0.22l0.37,-3.7l9.77,-24.84l52.34,-30.32c-1.06,3.19 -1.42,8.08 -1.33,13.69c0.26,17.98 4.99,43.31 4.99,43.31z"/>
  <path id="svg_60" fill="#f2f1f2" d="m288.24,350.55c-9.17,5.43 -49.49,3.22 -62.63,2.34l-3.57,-0.26l-0.59,0l0.65,-0.17l3.22,-0.85l6.92,-27.7l52.34,-30.34c-1.06,3.19 -1.42,8.08 -1.33,13.69c0.26,17.95 4.99,43.29 4.99,43.29z"/>
  <path id="svg_61" opacity="0.1" d="m283.25,307.22c-10.64,2.45 -34.06,9.66 -43.06,27c-6,11.58 -11,16.55 -14.57,18.63l-3.57,-0.26l0.06,-0.22l3.22,-0.85l6.92,-27.7l52.34,-30.34c-1.08,3.28 -1.43,8.13 -1.34,13.74z"/>
  <path id="svg_62" opacity="0.1" d="m55.11,448.93l12.22,7.33c-1.23,0.31 -2.79,1.49 -4.54,3.21c-1,-3 -7.42,-7.12 -10.32,-8.88c1.58,-1.08 2.64,-1.66 2.64,-1.66z"/>
  <path id="svg_63" opacity="0.1" d="m219.9,353.1a0.73,0.73 0 0 1 -0.86,-0.11a2.94,2.94 0 0 0 0.86,0.11z"/>
  <path id="svg_64" fill="#565388" d="m247.51,229.99s-11,1.22 -18.74,-6.92c0,0 -32.58,9.37 -43.58,30.55s-85.94,62.72 -85.94,62.72s13,7.33 11.81,11l49.28,-28.51s17.51,-12.63 22.4,-15.48s31.77,-20.36 37.47,27.29s0,42 0,42s8.15,2.85 20,-20s48.47,-28.1 48.47,-28.1l2,-24s7.27,-15.92 1.7,-22.56a14.1,14.1 0 0 1 -3.26,-6.89c-0.93,-6.1 0,-16.27 13,-24.72c20,-13 27.7,-23.62 27.7,-23.62s0.41,-7.74 -11.81,-11.4s-61.91,-23.62 -61.91,-23.62l-1.63,6.92l39.1,27.7s-19.55,15.88 -35,15.48c-0.06,-0.07 2.79,11.75 -11.06,12.16z"/>
  <path id="svg_65" opacity="0.1" d="m255.06,211.02a80,80 0 0 1 -2.25,-10l-21.59,5.74a23.8,23.8 0 0 1 -0.49,12.45a23.22,23.22 0 0 0 24.33,-8.2l0,0.01z"/>
  <circle stroke="null" id="svg_66" fill="#ffbdc6" r="23.219999" cy="195.57" cx="237.13"/>
  <path id="svg_67" opacity="0.1" d="m249.47,142.76c6.44,0.73 12.57,3.5 18.91,5a9.34,9.34 0 0 0 4.89,0.19c2.46,-0.76 4.46,-3.34 7,-3.26c1.57,0 3,1.12 4.26,2.15a51.11,51.11 0 0 1 5.87,5.21c4.37,4.75 7.09,11.15 11.08,16.31s10.28,9.18 15.95,6.81c-3.85,15 -16.49,26.47 -30.15,27.4c-5.45,0.37 -11,-0.76 -16.31,0.84a14.28,14.28 0 0 1 -4.12,1c-3,0 -5.48,-2.79 -7.38,-5.5c-4.44,-6.38 -8,-13.62 -13,-19.43c-1.65,-1.92 -3.6,-3.75 -5.93,-4.1s-4.48,0.76 -6.56,1.84c-3.43,1.78 -6.94,3.62 -9.6,6.66s-4.34,7.59 -3.24,11.71c0.59,2.22 1.95,4.22 2,6.55c0,3.7 -3.22,6.41 -3.87,10a38.6,38.6 0 0 0 -0.16,4.56c-0.29,4.94 -3.51,9 -6.89,12.09c-1.31,1.21 -2.77,2.5 -3.15,4.37c-0.26,1.27 0,2.62 -0.17,3.91c-0.49,3.21 -3.69,4.83 -6.52,5.25a18.9,18.9 0 0 1 -9.78,-1.16c4,-1.87 6.39,-7.2 5.47,-12c-1.26,-6.61 -7.9,-11.35 -7.34,-18.09a20.93,20.93 0 0 1 1.84,-5.95a54.45,54.45 0 0 0 3.14,-11.28a19.11,19.11 0 0 0 -0.19,-9c-0.85,-2.59 -2.58,-4.65 -4.06,-6.84a38.82,38.82 0 0 1 -4.7,-9.63a6.75,6.75 0 0 1 -0.45,-3.18a6.59,6.59 0 0 1 2,-3.3c3.64,-3.81 7.54,-7.78 12.38,-8.88a27.76,27.76 0 0 1 7,-0.27a82.24,82.24 0 0 0 12.21,-0.52c3.34,-0.39 9,-0.34 11.82,-2.52c2.63,-2 4.12,-4.55 7.37,-5.83a21.57,21.57 0 0 1 10.38,-1.11z"/>
  <path id="svg_68" opacity="0.1" d="m262.38,382.52s13.44,26.47 9.37,34.62"/>
  <path id="svg_69" opacity="0.1" d="m286.75,453.32l-19.68,-25l0,0.44s-1.14,-8.08 2.61,-5.36c8.21,5.94 21.35,15.68 21.63,17.36s-2.66,8.42 -4.56,12.56z"/>
  <g id="svg_70" opacity="0.1">
   <path id="svg_71" d="m258.9,217.76s1.66,6.88 -3.71,10.32c8.27,-1.42 8.63,-7.85 8.38,-10.65a26.06,26.06 0 0 1 -4.67,0.33z"/>
   <path id="svg_72" d="m104.15,314.71s74.94,-41.54 85.94,-62.72c7.89,-15.2 26.9,-24.31 37,-28.25c-7.37,2.47 -32.17,11.94 -41.49,29.88c-11,21.18 -85.94,62.72 -85.94,62.72l4.49,-1.63z"/>
   <path id="svg_73" d="m273.48,214.53c12.75,-4 24.94,-13.87 24.94,-13.87l-39.1,-27.7l0.89,-3.8l-3.74,-1.5l-1.63,6.92l39.1,27.7a94.35,94.35 0 0 1 -20.46,12.25z"/>
   <path id="svg_74" d="m273.73,308.39a96.88,96.88 0 0 1 15.33,-3.87l0.07,-0.79a103.76,103.76 0 0 0 -15.4,4.66z"/>
   <path id="svg_75" d="m226.34,351.06l-0.36,0a0.73,0.73 0 0 1 -0.86,-0.11a3,3 0 0 0 0.86,0.11c1.34,-0.78 3.35,-6.86 -0.86,-42.06c-4.5,-37.58 -22.16,-34.63 -31.83,-30.31c9.88,-2.72 23.48,-0.37 27.35,31.94c4.21,35.2 2.2,41.29 0.86,42.06a9,9 0 0 0 4.84,-1.63z"/>
   <path id="svg_76" d="m221.5,352.7a3,3 0 0 1 -0.86,-0.11a0.73,0.73 0 0 0 0.86,0.11z"/>
  </g>
  <path id="svg_77" fill="#a66477" d="m249.47,141.97c6.44,0.73 12.57,3.5 18.91,5a9.34,9.34 0 0 0 4.89,0.19c2.46,-0.76 4.46,-3.34 7,-3.26c1.57,0 3,1.12 4.26,2.15a51.11,51.11 0 0 1 5.87,5.21c4.37,4.75 7.09,11.15 11.08,16.31s10.28,9.18 15.95,6.81c-3.85,15 -16.49,26.47 -30.15,27.4c-5.45,0.37 -11,-0.76 -16.31,0.84a14.28,14.28 0 0 1 -4.12,1c-3,0 -5.48,-2.79 -7.38,-5.5c-4.44,-6.38 -8,-13.62 -13,-19.43c-1.65,-1.92 -3.6,-3.75 -5.93,-4.1s-4.48,0.76 -6.56,1.84c-3.43,1.78 -6.94,3.62 -9.6,6.66s-4.34,7.59 -3.24,11.71c0.59,2.22 1.95,4.22 2,6.55c0,3.7 -3.22,6.41 -3.87,10a38.6,38.6 0 0 0 -0.16,4.56c-0.29,4.94 -3.51,9 -6.89,12.09c-1.31,1.21 -2.77,2.5 -3.15,4.37c-0.26,1.27 0,2.62 -0.17,3.91c-0.49,3.21 -3.69,4.83 -6.52,5.25a18.9,18.9 0 0 1 -9.78,-1.16c4,-1.87 6.39,-7.2 5.47,-12c-1.26,-6.61 -7.9,-11.35 -7.34,-18.09a20.93,20.93 0 0 1 1.84,-5.95a54.45,54.45 0 0 0 3.14,-11.28a19.11,19.11 0 0 0 -0.19,-9c-0.85,-2.59 -2.58,-4.65 -4.06,-6.84a38.82,38.82 0 0 1 -4.7,-9.63a6.75,6.75 0 0 1 -0.45,-3.18a6.59,6.59 0 0 1 2,-3.3c3.64,-3.81 7.54,-7.78 12.38,-8.88a27.76,27.76 0 0 1 7,-0.27a82.24,82.24 0 0 0 12.21,-0.52c3.34,-0.39 9,-0.34 11.82,-2.52c2.63,-2 4.12,-4.55 7.37,-5.83a21.57,21.57 0 0 1 10.38,-1.11z"/>
  <path id="svg_78" fill="url(#2bd42fb4-2e8b-436b-a616-1dc6bfdc374d)" d="m1256.5,138.85l0,0c0,-0.13 0,-0.25 0,-0.37s0,-0.26 -0.06,-0.38l-0.16,0c0,-0.27 0,-0.54 0,-0.83c-0.4,-9.27 -13.22,-29 -18.36,-23.24c-4.5,5.06 2.29,17.86 5.75,23.62l0.31,0.52l-0.17,-0.11s-14.31,42.68 -16,44.34s-13.47,35.22 -29,39c-3.07,0.73 -5.62,1.39 -7.76,2l0.17,-0.57c1,-3.27 2.23,-6.36 2.73,-10s0,-8.05 -1.84,-9.82c-0.9,-0.88 -2,-1 -2.74,-2.4a11.08,11.08 0 0 1 -0.76,-3.85l-1.32,-16.18l0.92,-0.28c5.56,-1.78 10.95,-6 11.58,-11.68a6,6 0 0 1 -0.59,0.19a10.13,10.13 0 0 0 0.17,-1c-4.67,1.84 -9,-3 -13.5,-5.17c-7.41,-3.63 -15.88,-0.21 -23.53,0.62c-8.67,0.95 -16.9,-2.65 -25.76,-2c-4.82,0.37 -10.18,3.64 -9.92,8.39c0.15,2.61 2,4.82 2.76,7.32c1.92,6.05 -2.35,12.12 -6.09,17.28c-2.46,3.39 -4.82,7.52 -5.24,11.5c-8.61,-9 -17.92,-19.4 -19,-23.31l-24.91,-42.68s-0.59,0.63 -1.54,1.56c-0.15,-0.46 -0.33,-1 -0.53,-1.54c-3.18,-8.91 -12.18,-30.5 -23.59,-26.54s4.73,26.09 11.75,34.91l1,1.22a3.16,3.16 0 0 1 -1.78,-0.08l27.78,47.65s5.05,9.12 9.68,11.6c0,0 34.51,43.51 34.93,52.21s15.52,31.91 15.52,31.91s5.05,37.71 -3.79,44.34l0.11,0l0.07,0l0.11,0l0.1,0l0.2,0l0.13,0l0.13,0l0.17,0l0.14,0l0.2,0l0.1,0c-0.42,0.41 -0.85,0.86 -1.29,1.35c-6.55,7.26 -14.92,22.82 -3.48,49.28c16.83,39 19.36,54.28 19.36,54.28s-32,1.66 -38.3,2.9c-5.58,1.1 -27.27,1.87 -32.23,2c-1.77,-2.06 -7,-6.62 -14.06,0c-8.84,8.29 -15.15,36 -15.15,36s-3.37,22.38 8,16.57c0,0 13.47,-18.65 17.25,-19.48c1.88,-0.41 3.87,-3.18 5.39,-5.85l0.08,0.05l0,0c0.09,0 0.46,-0.2 1.06,-0.44l0,0c2.8,-1.11 10.51,-3.78 16.59,-2.45c3.33,0.73 17.61,0.9 32.58,0.86c-3.38,8.1 -9.44,29 -9.44,29s-2.53,19.49 5.87,18.69c6,-0.59 15.2,-15.92 20,-24.67c3.48,-2.55 13.45,-11.69 20.82,-11l49.66,-19.06s11.78,-6.63 5.47,-28.59c-5,-17.46 -19.23,-53.2 -24.85,-67.13l0,0l-0.17,-0.36c-1.36,-3.37 -2.18,-5.37 -2.18,-5.37l0,0a82.19,82.19 0 0 1 -4.51,-19.71c-0.05,-0.53 -0.09,-1.07 -0.13,-1.6a8.84,8.84 0 0 0 1.95,-1.13s-4.63,-46.82 0,-51.8l0,0l0,0l0.08,-0.09l0,0l0,-0.06l0,0l0.08,-0.1l0,0l0.18,-0.23l0,0l0.22,-0.28l0,0c0.25,-0.33 0.55,-0.74 0.89,-1.24l0,0c2.65,-3.88 7.59,-12.74 6.17,-23.2l0,0q-0.09,-0.68 -0.22,-1.37l0,0a28.57,28.57 0 0 0 -2.88,-8.12a22.52,22.52 0 0 1 -0.37,-3.21c0,-0.61 0,-1.28 0,-2l0,-0.12q0,-0.29 0,-0.58l0,-0.14c0,-0.47 0.08,-1 0.15,-1.44l0,-0.18q0,-0.27 0.09,-0.55l0,-0.23c0,-0.18 0.08,-0.36 0.12,-0.54l0,-0.19c0.06,-0.24 0.12,-0.48 0.2,-0.72l0,-0.12q0.09,-0.3 0.2,-0.59l0.09,-0.23l0.2,-0.48l0.1,-0.24c0.08,-0.18 0.17,-0.36 0.26,-0.54l0.07,-0.15q0.18,-0.33 0.38,-0.65l0.11,-0.17l0.33,-0.47l0.16,-0.21l0.35,-0.42l0.16,-0.18c0.18,-0.19 0.36,-0.38 0.56,-0.56c5.47,-5 29.88,-41.85 29.88,-41.85s5.89,-8.29 5.89,-13.67c0.33,-0.12 10.74,-34.82 9.69,-45.37zm-65.53,309.75c-0.6,-5.68 -1.2,-12.72 -1.75,-20l9.52,14.84s-0.9,4.52 -7.77,5.16z"/>
  <path id="svg_79" fill="#493545" d="m1091.71,445.46s-5.7,-9 -14.26,-0.81s-14.66,35.43 -14.66,35.43s-3.26,22 7.74,16.29c0,0 13,-18.33 16.7,-19.14s7.74,-11 7.74,-11l-3.26,-20.77z"/>
  <path id="svg_80" fill="#493545" d="m1152.8,467.45s-7.74,-3.67 -10.18,-0.81s-10.59,31.36 -10.59,31.36s-2.44,18.74 5.7,17.92s22.4,-30.16 22.4,-30.16l-7.33,-18.31z"/>
  <path id="svg_81" opacity="0.05" d="m1152.8,467.45s-7.74,-3.67 -10.18,-0.81s-10.59,31.36 -10.59,31.36s-2.44,18.74 5.7,17.92s22.4,-30.16 22.4,-30.16l-7.33,-18.31z"/>
  <path id="svg_82" fill="#3e3d77" d="m1179.68,412.06l17.51,27.29s-1.22,6.11 -11.81,4.89l-36.25,22.81s-3.15,27.77 6.92,25.25c1.63,-0.41 13,-12.22 21.18,-11.4l48.07,-18.74s11.4,-6.52 5.29,-28.1s-26.31,-71.62 -26.31,-71.62l-31.93,17.86l7.33,31.76z"/>
  <path id="svg_83" opacity="0.05" d="m1179.68,412.06l17.51,27.29s-1.22,6.11 -11.81,4.89l-36.25,22.81s-3.15,27.77 6.92,25.25c1.63,-0.41 13,-12.22 21.18,-11.4l48.07,-18.74s11.4,-6.52 5.29,-28.1s-26.31,-71.62 -26.31,-71.62l-31.93,17.86l7.33,31.76z"/>
  <path id="svg_84" fill="#3e3d77" d="m1190.68,452.38c2.44,15.48 -11.4,16.7 -11.4,16.7s-62.32,1.22 -69.65,-0.41s-17.11,2.85 -17.11,2.85c-12.63,-7.74 -2.44,-26.88 -2.44,-26.88s26.07,-0.81 32.18,-2s37.06,-2.88 37.06,-2.88s-2.44,-15.07 -18.74,-53.35c-11.07,-26 -3,-41.3 3.37,-48.43a26.82,26.82 0 0 1 5.59,-4.92l50.1,2.44a65,65 0 0 0 0.28,7.57a80.62,80.62 0 0 0 6.65,25c-2.85,0 -21.18,17.11 -21.18,17.11s2.84,51.73 5.29,67.2z"/>
  <path id="svg_85" opacity="0.1" d="m1093.74,446.27s26.07,-0.81 32.18,-2s37.06,-2.85 37.06,-2.85s-2.44,-15.07 -18.74,-53.35c-11.07,-26 -3,-41.3 3.37,-48.43a26.82,26.82 0 0 1 5.59,-4.92l46.42,2.26c0,-0.48 0,-1 0,-1.45l-50.1,-2.44a26.82,26.82 0 0 0 -5.59,4.92c-6.34,7.14 -14.44,22.43 -3.37,48.43c16.34,38.25 18.76,53.32 18.76,53.32s-31,1.63 -37.06,2.85s-32.18,2 -32.18,2s-10.18,19.15 2.44,26.92c0,0 0.38,-0.18 1,-0.44c-8.39,-8.63 0.22,-24.82 0.22,-24.82z"/>
  <rect id="svg_86" fill="#493545" height="63.94" width="25.25" y="183.57" x="1143.02"/>
  <rect id="svg_87" opacity="0.1" height="63.94" width="25.25" y="183.57" x="1143.02"/>
  <path id="svg_88" fill="#493545" d="m1182.71,174.19c0.87,0.24 1.85,0.27 2.44,1.47a9,9 0 0 1 0.59,3l1.59,19.76a11,11 0 0 0 0.74,3.78c0.67,1.34 1.78,1.5 2.65,2.36c1.75,1.74 2.26,6.1 1.78,9.65s-1.69,6.59 -2.64,9.8c-1.36,4.6 -2.26,9.77 -4.17,13.65s-5.38,6 -7.62,2.74s-1.94,-9.84 -2.36,-15.23c-0.7,-9 -4.21,-16.76 -4.45,-25.82c-0.2,-7.33 1.77,-14.17 3,-21.12c0.88,-4.77 0.93,-10.56 2.21,-14.85c1.07,5.1 3.11,9.95 6.24,10.81z"/>
  <path id="svg_89" opacity="0.1" d="m1182.71,174.19c0.87,0.24 1.85,0.27 2.44,1.47a9,9 0 0 1 0.59,3l1.59,19.76a11,11 0 0 0 0.74,3.78c0.67,1.34 1.78,1.5 2.65,2.36c1.75,1.74 2.26,6.1 1.78,9.65s-1.69,6.59 -2.64,9.8c-1.36,4.6 -2.26,9.77 -4.17,13.65s-5.38,6 -7.62,2.74s-1.94,-9.84 -2.36,-15.23c-0.7,-9 -4.21,-16.76 -4.45,-25.82c-0.2,-7.33 1.77,-14.17 3,-21.12c0.88,-4.77 0.93,-10.56 2.21,-14.85c1.07,5.1 3.11,9.95 6.24,10.81z"/>
  <path id="svg_90" fill="#c77485" d="m1075.82,146.1l-9.77,8.15s-1.16,-1.36 -2.89,-3.56c-6.79,-8.67 -22.4,-30.42 -11.37,-34.31s19.75,17.32 22.83,26.08c0.78,2.22 1.2,3.64 1.2,3.64z"/>
  <path id="svg_91" fill="#c77485" d="m1252.18,143.25c-4.07,6.11 -9.77,0 -9.77,0s-0.73,-1.09 -1.76,-2.85c-3.35,-5.67 -9.92,-18.24 -5.57,-23.22c5,-5.69 17.39,13.73 17.77,22.84a5.42,5.42 0 0 1 -0.67,3.23z"/>
  <path id="svg_92" fill="#c77485" d="m1151.98,209.23s8.15,26.07 5.7,33.8s17.52,16.73 17.52,16.73l22.81,0s8.15,-16.7 6.11,-21.59s-19.55,-8.55 -19.55,-8.55s-10.18,0 -9.77,-27.29l-22.82,6.9z"/>
  <path id="svg_93" opacity="0.1" d="m1075.82,146.1l-9.77,8.15s-1.16,-1.36 -2.89,-3.56c3.55,-0.63 9.06,-5.81 11.47,-8.23c0.77,2.22 1.19,3.64 1.19,3.64z"/>
  <path id="svg_94" opacity="0.1" d="m1252.18,143.25c-4.07,6.11 -9.77,0 -9.77,0s-0.73,-1.09 -1.76,-2.85l0.13,-0.41c2.64,1.89 10.85,0.28 12.07,0a5.42,5.42 0 0 1 -0.67,3.26z"/>
  <path id="svg_95" opacity="0.1" d="m1199.9,343.06c-12.6,5.75 -53.54,-4.49 -56,-5.1a26.82,26.82 0 0 1 5.59,-4.92l50.1,2.44a65,65 0 0 0 0.31,7.58z"/>
  <path id="svg_96" fill="#ffaac4" d="m1157.28,231.63s-9.77,3.26 -23.62,-9.37c0,0 -31,-30.55 -33,-37.88l-24,-42s-10.18,11 -14.26,9.37l26.88,46.84s4.89,9 9.37,11.4c0,0 33.4,42.77 33.8,51.32s15.05,31.45 15.05,31.45s4.89,37.06 -3.67,43.58c0,0 47.65,12.22 57.83,4.07c0,0 -4.48,-46 0,-50.91c0,0 13.85,-16.29 4.48,-34.21c0,0 -2,-9.77 3.26,-14.66s28.92,-41.14 28.92,-41.14s5.7,-8.15 5.7,-13.44c0,0 10.59,-35.84 9,-45.21c0,0 -9.37,2 -12.22,0c0,0 -13.85,42 -15.48,43.58s-13,34.62 -28.1,38.29s-17.51,5.29 -17.51,5.29s29.32,18.33 15.07,26.47s-37.5,-22.84 -37.5,-22.84z"/>
  <path id="svg_97" opacity="0.1" d="m1175.79,215.5a77.83,77.83 0 0 1 -0.59,-11.57l-22.81,6.92a30.76,30.76 0 0 1 1.43,4.68c2.61,1.15 6.13,3.87 9.16,3.87a20.77,20.77 0 0 0 12.81,-3.9z"/>
  <circle id="svg_98" fill="#c77485" r="21.18" cy="197.01" cx="1162.57"/>
  <path id="svg_99" opacity="0.1" d="m1137.37,164.38c-4.66,0.36 -9.86,3.58 -9.6,8.25c0.14,2.57 1.9,4.74 2.67,7.2c1.85,5.95 -2.27,11.92 -5.89,17s-7,11.81 -3.9,17.19a42.39,42.39 0 0 0 2.86,3.73c3.83,5.17 3.78,12.15 5.48,18.36a32.21,32.21 0 0 0 37.84,23a20.14,20.14 0 0 1 -4.25,-13.62c0.23,-3.56 1.38,-7.28 0,-10.57c-1.78,-4.23 -7,-5.9 -9.69,-9.6s-2.51,-8.83 -1.21,-13.24s3.55,-8.5 4.63,-13a39.16,39.16 0 0 1 1,-3.89c1.88,-5.34 7.5,-8.44 13,-9.77s11.28,-1.41 16.65,-3.16s10.59,-5.85 11.21,-11.48c-4.52,1.81 -8.71,-2.91 -13.07,-5.08c-7.18,-3.56 -15.37,-0.21 -22.77,0.61c-8.43,0.94 -16.43,-2.55 -24.96,-1.93z"/>
  <path id="svg_100" fill="#493545" d="m1136.96,163.57c-4.66,0.36 -9.86,3.58 -9.6,8.25c0.14,2.57 1.9,4.74 2.67,7.2c1.85,5.95 -2.27,11.92 -5.89,17s-7,11.81 -3.9,17.19a42.39,42.39 0 0 0 2.86,3.73c3.83,5.17 3.78,12.15 5.48,18.36a32.21,32.21 0 0 0 37.84,23a20.14,20.14 0 0 1 -4.25,-13.62c0.23,-3.56 1.38,-7.28 0,-10.57c-1.78,-4.23 -7,-5.9 -9.69,-9.6s-2.51,-8.83 -1.21,-13.24s3.55,-8.5 4.63,-13a39.16,39.16 0 0 1 1,-3.89c1.88,-5.34 7.5,-8.44 13,-9.77s11.28,-1.41 16.65,-3.16s10.59,-5.85 11.21,-11.48c-4.52,1.81 -8.71,-2.91 -13.07,-5.08c-7.18,-3.56 -15.37,-0.21 -22.77,0.61c-8.41,0.93 -16.38,-2.6 -24.96,-1.93z"/>
  <path id="svg_101" opacity="0.1" d="m1183.55,244.06s8.48,7.57 10.15,10.91"/>
  <path id="svg_102" opacity="0.1" d="m1201.9,289.27s-10.59,0 -15.48,1.22s-16.7,0 -16.7,0"/>
  <g id="svg_103" opacity="0.1">
   <path id="svg_104" d="m1194.75,254.44a10.18,10.18 0 0 1 -2.93,1.12a11.2,11.2 0 0 0 7.82,-1.12c14.26,-8.15 -15.07,-26.47 -15.07,-26.47l-4.89,0s29.33,18.33 15.07,26.47z"/>
   <path id="svg_105" d="m1253.09,141.55c0,-0.26 -0.06,-0.51 -0.1,-0.74a47.84,47.84 0 0 1 -5.07,0.77a22.46,22.46 0 0 0 5.17,-0.03z"/>
   <path id="svg_106" d="m1148.73,336.31c8.55,-6.52 3.67,-43.58 3.67,-43.58s-14.66,-22.81 -15.07,-31.36s-33.8,-51.32 -33.8,-51.32c-4.48,-2.44 -9.37,-11.4 -9.37,-11.4s-27.7,-45.21 -31.77,-46.84l26.88,46.84s4.89,9 9.37,11.4c0,0 33.4,42.77 33.8,51.32s15.06,31.39 15.06,31.39s4.89,37.06 -3.67,43.58c0,0 29.29,7.51 46.85,6.83c-17.6,-0.62 -41.95,-6.86 -41.95,-6.86z"/>
   <path id="svg_107" d="m1157.52,231.95l-0.24,-0.31a6.44,6.44 0 0 1 -0.85,0.19c0.38,0.05 0.74,0.09 1.09,0.12z"/>
  </g>
  <g id="svg_108" opacity="0.1">
   <path id="svg_109" d="m1252.99,140.76l-0.25,0.05c-0.43,12.51 -9.11,41.9 -9.11,41.9c0,5.29 -5.7,13.44 -5.7,13.44s-23.62,36.25 -28.92,41.14s-3.26,14.66 -3.26,14.66l0.05,0.1c-0.16,-3.29 0.24,-8.39 3.61,-11.51c5.29,-4.89 28.92,-41.14 28.92,-41.14s5.7,-8.15 5.7,-13.44c0,0.06 10.59,-35.78 8.96,-45.2z"/>
   <path id="svg_110" d="m1201.27,286.21c0.61,3.46 0.2,-0.2 0.41,3.26c0,0 10,-11.73 7.27,-26.23c0.82,12.96 -7.68,22.97 -7.68,22.97z"/>
  </g>
  <ellipse id="svg_111" opacity="0.1" fill="#6c63ff" ry="41.08" rx="427.67" cy="520" cx="739.79"/>
  <path id="svg_130" fill="#6c63ff"/>
  <path id="svg_139" opacity="0.1" fill="#6c63ff" d="m877.16,456.85s-5,-20.11 -9.31,-24.34l9.31,24.34z"/>
  <path id="svg_142" opacity="0.5" fill="#dee3f3" d="m669.9,15.31l-6.28,0a4.4,4.4 0 1 0 0,-8.79l-50.92,0a4.4,4.4 0 0 0 0,8.79l6.28,0a4.4,4.4 0 0 0 0,8.79l-8.79,0a4.4,4.4 0 1 0 0,8.79l50.88,0a4.4,4.4 0 1 0 0,-8.79l8.83,0a4.4,4.4 0 0 0 0,-8.79z"/>
  <path id="svg_143" opacity="0.5" fill="#dee3f3" d="m557.68,55.95l-4.78,0a3.35,3.35 0 1 0 0,-6.69l-38.72,0a3.35,3.35 0 0 0 0,6.69l4.78,0a3.35,3.35 0 1 0 0,6.69l-6.69,0a3.35,3.35 0 1 0 0,6.69l38.72,0a3.35,3.35 0 1 0 0,-6.69l6.69,0a3.35,3.35 0 0 0 0,-6.69z"/>
  <path id="svg_144" stroke-miterlimit="10" stroke="#6c63ff" fill="none" d="m239.68,469.76s17.5,34.35 3.24,53.14s1.3,70 1.3,70"/>
  <path id="svg_145" fill="#6c63ff" d="m245.9,498.02c0,6.62 -4.86,12 -4.86,12s-4.86,-5.37 -4.86,-12s4.86,-12 4.86,-12s4.86,5.38 4.86,12z"/>
  <path id="svg_146" stroke-miterlimit="10" stroke="#6c63ff" fill="none" d="m248.75,469.76s-17.5,34.35 -3.24,53.14s-1.3,70 -1.3,70"/>
  <path id="svg_147" fill="#6c63ff" d="m244.57,498.02c0,6.62 4.86,12 4.86,12s4.86,-5.37 4.86,-12s-4.86,-12 -4.86,-12s-4.86,5.38 -4.86,12z"/>
  <path id="svg_148" opacity="0.1" d="m244.57,498.02c0,6.62 4.86,12 4.86,12s4.86,-5.37 4.86,-12s-4.86,-12 -4.86,-12s-4.86,5.38 -4.86,12z"/>
  <path id="svg_149" stroke-miterlimit="10" stroke="#6c63ff" fill="none" d="m255.9,469.76s17.5,34.35 3.24,53.14s1.3,70 1.3,70"/>
  <path id="svg_150" fill="#6c63ff" d="m262.07,498.02c0,6.62 -4.86,12 -4.86,12s-4.86,-5.37 -4.86,-12s4.86,-12 4.86,-12s4.86,5.38 4.86,12z"/>
  <path id="svg_151" fill="#6c63ff" d="m258.34,486.54c-4.59,4.77 -11.82,5.27 -11.82,5.27s0.22,-7.24 4.81,-12s11.82,-5.27 11.82,-5.27s-0.25,7.22 -4.81,12z"/>
  <path id="svg_152" fill="#6c63ff" d="m258.8,510.24c-4.59,4.77 -11.82,5.27 -11.82,5.27s0.22,-7.24 4.81,-12s11.82,-5.27 11.82,-5.27s-0.22,7.22 -4.81,12z"/>
  <path id="svg_153" fill="#6c63ff" d="m233.9,523.27c4.34,5 4.19,12.24 4.19,12.24s-7.19,-0.87 -11.53,-5.87s-4.19,-12.24 -4.19,-12.24s7.19,0.87 11.53,5.87z"/>
  <path id="svg_154" fill="#6c63ff" d="m238.9,511.76c5.52,3.66 7.31,10.68 7.31,10.68s-7.16,1.09 -12.68,-2.57s-7.31,-10.68 -7.31,-10.68s7.19,-1.11 12.68,2.57z"/>
  <path id="svg_155" opacity="0.1" d="m238.9,511.76c5.52,3.66 7.31,10.68 7.31,10.68s-7.16,1.09 -12.68,-2.57s-7.31,-10.68 -7.31,-10.68s7.19,-1.11 12.68,2.57z"/>
  <path id="svg_156" stroke-miterlimit="10" stroke="#6c63ff" fill="none" d="m264.95,469.76s-17.5,34.35 -3.24,53.14s-1.3,70 -1.3,70"/>
  <path id="svg_157" fill="#6c63ff" d="m260.77,498.02c0,6.62 4.86,12 4.86,12s4.86,-5.37 4.86,-12s-4.86,-12 -4.86,-12s-4.86,5.38 -4.86,12z"/>
  <path id="svg_158" opacity="0.1" d="m260.77,498.02c0,6.62 4.86,12 4.86,12s4.86,-5.37 4.86,-12s-4.86,-12 -4.86,-12s-4.86,5.38 -4.86,12z"/>
  <path id="svg_159" fill="#6c63ff" d="m261.17,487.05c-4.65,4.72 -5,12 -5,12s7.23,-0.41 11.88,-5.13s5,-12 5,-12s-7.23,0.41 -11.88,5.13z"/>
  <path id="svg_160" opacity="0.1" d="m261.17,487.05c-4.65,4.72 -5,12 -5,12s7.23,-0.41 11.88,-5.13s5,-12 5,-12s-7.23,0.41 -11.88,5.13z"/>
  <path id="svg_161" fill="#6c63ff" d="m270.28,519.86c-4.65,4.72 -5,12 -5,12s7.23,-0.41 11.88,-5.13s5,-12 5,-12s-7.26,0.41 -11.88,5.13z"/>
  <path id="svg_162" stroke-miterlimit="10" stroke="#6c63ff" fill="none" d="m256.9,512.65s10.53,-16.6 25.32,-17"/>
  <path id="svg_163" stroke-miterlimit="10" stroke="#6c63ff" fill="none" d="m248.67,502.62s-10.53,-16.6 -25.32,-17"/>
  <path id="svg_164" stroke-miterlimit="10" stroke="#6c63ff" fill="none" d="m247.3,526.32s10.53,-16.6 25.32,-17"/>
  <circle id="svg_165" fill="#6c63ff" r="2.73" cy="495.56" cx="281.71"/>
  <circle id="svg_166" fill="#6c63ff" r="2.73" cy="485.76" cx="223.61"/>
  <path id="svg_167" stroke-miterlimit="10" stroke="#6c63ff" fill="none" d="m255.05,531.76s-10.53,-16.6 -25.32,-17"/>
  <circle id="svg_168" fill="#6c63ff" r="2.73" cy="514.92" cx="229.99"/>
  <circle id="svg_169" fill="#6c63ff" r="2.73" cy="509.46" cx="272.82"/>
  <path id="svg_170" fill="#a8a8a8" d="m313.28,572.91s-25.38,-5.08 -32.16,-11.85s-37.22,-18.61 -40.61,-10.15s-45.69,37.23 -16.92,42.31s67.69,6.77 76.15,3.38s13.54,-23.69 13.54,-23.69z"/>
  <path id="svg_171" opacity="0.2" d="m223.59,590.07c28.77,5.08 67.69,6.77 76.15,3.38c6.44,-2.58 10.92,-15 12.69,-20.72l0.85,0.18s-5.08,20.31 -13.54,23.69s-47.38,1.69 -76.15,-3.38c-8.3,-1.47 -10.68,-4.91 -9.78,-9.26c0.7,2.8 3.6,5.02 9.78,6.11z"/>
  <path id="svg_172" fill="#6c63ff" d="m1313.83,446.54s8.38,11 -3.87,27.5s-22.35,30.51 -18.26,40.83c0,0 18.48,-30.73 33.52,-31.16s5.16,-18.7 -11.39,-37.17z"/>
  <path id="svg_173" opacity="0.1" d="m1313.83,446.54a13.57,13.57 0 0 1 1.71,3.44c14.68,17.24 22.49,33.33 8.39,33.74c-13.14,0.38 -28.9,23.87 -32.68,29.81a12.74,12.74 0 0 0 0.45,1.35s18.48,-30.73 33.52,-31.16s5.16,-18.71 -11.39,-37.18z"/>
  <path id="svg_174" fill="#ffd037" d="m1065.41,531.5c0,3.86 -0.43,7 -1,7s-1,-3.13 -1,-7s0.54,-2 1.07,-2s0.93,-1.85 0.93,2z"/>
  <path id="svg_175" fill="#ffd037" d="m1070.76,536.11c-3.39,1.85 -6.34,3 -6.59,2.49s2.28,-2.35 5.67,-4.19s2.05,-0.5 2.31,0s1.99,-0.15 -1.39,1.7z"/>
  <path id="svg_176" fill="#6c63ff" d="m1269.57,446.54s-8.38,11 3.87,27.5s22.35,30.51 18.26,40.83c0,0 -18.48,-30.73 -33.52,-31.16s-5.16,-18.7 11.39,-37.17z"/>
  <path id="svg_177" opacity="0.1" d="m1269.57,446.54a13.57,13.57 0 0 0 -1.71,3.44c-14.68,17.24 -22.49,33.33 -8.39,33.74c13.14,0.38 28.9,23.87 32.68,29.81a12.74,12.74 0 0 1 -0.45,1.35s-18.48,-30.73 -33.52,-31.16s-5.16,-18.71 11.39,-37.18z"/>
  <path id="svg_178" fill="#ffd037" d="m881.99,403.5c0,3.86 0.43,7 1,7s1,-3.13 1,-7s-0.54,-2 -1.07,-2s-0.93,-1.85 -0.93,2z"/>
  <path id="svg_179" fill="#ffd037" d="m876.64,408.11c3.39,1.85 6.34,3 6.59,2.49s-2.28,-2.35 -5.67,-4.19s-2.05,-0.5 -2.31,0s-2,-0.15 1.39,1.7z"/>
  <path id="svg_180" fill="#a8a8a8" d="m1256.66,513.43s23.43,-0.72 30.49,-5.75s36,-11 37.79,-3s35.21,40.11 8.76,40.32s-61.46,-4.12 -68.51,-8.41s-8.53,-23.16 -8.53,-23.16z"/>
  <path id="svg_181" opacity="0.2" d="m1334.17,542.23c-26.45,0.21 -61.46,-4.12 -68.51,-8.41c-5.37,-3.27 -7.51,-15 -8.22,-20.41l-0.78,0s1.48,18.9 8.53,23.19s42.06,8.63 68.51,8.41c7.64,-0.06 10.27,-2.78 10.13,-6.8c-1.06,2.45 -3.93,3.97 -9.66,4.02z"/>
  <path id="svg_182" opacity="0.5" fill="#dee3f3" d="m359.84,89.64l-6.28,0a4.4,4.4 0 1 0 0,-8.79l-50.88,0a4.4,4.4 0 0 0 0,8.79l6.28,0a4.4,4.4 0 0 0 0,8.79l-8.79,0a4.4,4.4 0 0 0 0,8.79l50.88,0a4.4,4.4 0 1 0 0,-8.79l8.79,0a4.4,4.4 0 0 0 0,-8.79z"/>
  <text stroke="null" transform="matrix(1.6255280844266051,0,0,1.5535886201626568,-128.26512924959587,-191.0001247544713) " xml:space="preserve" text-anchor="start" font-family="'Simonetta', serif" font-size="47" id="svg_183" y="168.029998" x="322.724439" stroke-width="0" fill="#0b4f4f">Simple</text>
  <g id="svg_229">
   <g transform="matrix(0.03682244741543972,0,0,0.03682244741543972,0,0) " id="svg_227">
    <title>background</title>
    <rect x="-1" y="-1" width="582" height="402" id="svg_225" fill="none"/>
   </g>
   <g transform="matrix(0.03682244741543972,0,0,0.03682244741543972,0,0) " id="svg_228">
    <title>Layer 1</title>
    <path d="m899.83,712.29c-2.45,1 -4.91,1.93 -7.37,2.88c-7.71,-2.25 -14.91,-4.9 -14.91,-4.9a204.74,204.74 0 0 1 22.28,2.02z" opacity="0.1" id="svg_224"/>
    <path d="m974.23,628.36s18.71,4.4 19.81,7.39l-19.81,-7.39z" opacity="0.1" id="svg_223"/>
    <path d="m902.07,641.88s-9.75,2.83 -0.31,8.49s0.31,-8.49 0.31,-8.49z" opacity="0.1" id="svg_222"/>
    <path d="m893.43,267.25s6.91,3.15 8.48,7.55s-8.48,-7.55 -8.48,-7.55z" opacity="0.1" id="svg_221"/>
    <circle cx="786.53" cy="295.97" r="0.39" fill="#e6e8ec" id="svg_220"/>
    <path d="m110.02,558.67" fill="none" id="svg_219"/>
    <path fill="#24b56a" id="svg_218" stroke="null"/>
   </g>
  </g>
  <g stroke="null" id="svg_267">
   <g stroke="null" transform="matrix(0.09008662512768237,0,0,0.08150457269397005,-434.23777193229785,-124.2510429384393) " id="svg_265">
    <title stroke="null" transform="translate(521.7200927734375,-1631.810302734375) translate(-148.63485717773438,-61.7772216796875) translate(1824.155029296875,2285.75732421875) translate(-283.7574462890625,0) translate(391.85552978515625,30.88861083984375) translate(-27.024518966674805,15.444305419921875) ">background</title>
    <rect stroke="null" x="8278.896661" y="1825.977108" width="582" height="402" id="svg_263" fill="none"/>
   </g>
   <g stroke="null" transform="matrix(0.09008662512768237,0,0,0.08150457269397005,-434.23777193229785,-124.2510429384393) " id="svg_266">
    <title stroke="null" transform="translate(521.7200927734375,-1631.810302734375) translate(-148.63485717773438,-61.7772216796875) translate(1824.155029296875,2285.75732421875) translate(-283.7574462890625,0) translate(391.85552978515625,30.88861083984375) translate(-27.024518966674805,15.444305419921875) ">Layer 1</title>
    <path stroke="null" d="m9179.726659,2539.267106c-2.45,1 -4.91,1.93 -7.37,2.88c-7.71,-2.25 -14.91,-4.9 -14.91,-4.9a204.74,204.74 0 0 1 22.28,2.02z" opacity="0.1" id="svg_262"/>
    <path stroke="null" d="m9254.126659,2455.337106s18.71,4.4 19.81,7.39l-19.81,-7.39z" opacity="0.1" id="svg_261"/>
    <circle stroke="null" cx="9066.426661" cy="2122.947108" r="0.39" fill="#e6e8ec" id="svg_260"/>
    <path stroke="null" d="m9084.456659,2010.377106l-41,-41.23a21.77,21.77 0 0 0 -30.92,-0.21l-257.46,255.28l-108.86,-109.71a21.71,21.71 0 0 0 -30.7,-0.22l-41.44,41a22,22 0 0 0 -0.21,30.92l165.32,166.62a22,22 0 0 0 30.92,0.22l314.12,-311.76a21.77,21.77 0 0 0 0.23,-30.91z" fill="#3acc6c" id="svg_259"/>
   </g>
  </g>
  <text stroke="null" transform="matrix(1.4458111906906825,0,0,1.7697781908008163,-141.2730140156724,-134.60480457321313) " xml:space="preserve" text-anchor="start" font-family="'Simonetta', serif" font-size="47" id="svg_268" y="157.191501" x="373.392891" stroke-opacity="null" stroke-width="0" fill="#0b4f4f">Responsive</text>
  <g stroke="null" id="svg_199">
   <g stroke="null" id="svg_197" transform="matrix(0.09109162084321486,0,0,0.07871193480508694,-341.2549223032672,-166.47986333916737) ">
    <title stroke="null" transform="translate(515.9640502929688,-1689.7056884765625) translate(1901.6248779296875,2237.50537109375) ">background</title>
    <rect stroke="null" fill="none" id="svg_195" height="402" width="582" y="3253.055436" x="7155.81715"/>
   </g>
   <g stroke="null" id="svg_198" transform="matrix(0.09109162084321486,0,0,0.07871193480508694,-341.2549223032672,-166.47986333916737) ">
    <title stroke="null" transform="translate(515.9640502929688,-1689.7056884765625) translate(1901.6248779296875,2237.50537109375) ">Layer 1</title>
    <path stroke="null" id="svg_194" opacity="0.1" d="m8056.647148,3966.345433c-2.45,1 -4.91,1.93 -7.37,2.88c-7.71,-2.25 -14.91,-4.9 -14.91,-4.9a204.74,204.74 0 0 1 22.28,2.02z"/>
    <path stroke="null" id="svg_193" opacity="0.1" d="m8131.047148,3882.415433s18.71,4.4 19.81,7.39l-19.81,-7.39z"/>
    <circle stroke="null" id="svg_192" fill="#e6e8ec" r="0.39" cy="3550.025436" cx="7943.34715"/>
    <path stroke="null" id="svg_191" fill="#3acc6c" d="m7961.377148,3437.455433l-41,-41.23a21.77,21.77 0 0 0 -30.92,-0.21l-257.46,255.28l-108.86,-109.71a21.71,21.71 0 0 0 -30.7,-0.22l-41.44,41a22,22 0 0 0 -0.21,30.92l165.32,166.62a22,22 0 0 0 30.92,0.22l314.12,-311.76a21.77,21.77 0 0 0 0.23,-30.91z"/>
   </g>
  </g>
  <g id="svg_1">
   <path stroke="null" id="svg_2" opacity="0.1" fill="#6c63ff" d="m265.4786,176.41164c23.30833,46.76358 -6.42412,100.61222 -41.42243,141.16045c-11.71387,13.59739 -24.6457,27.85238 -26.26964,44.90745c-1.95828,20.86277 13.94679,40.03913 32.81316,52.57588c34.41322,22.84617 81.41198,29.91002 122.36873,18.38088c35.39236,-9.95941 65.14869,-32.45556 100.85151,-41.52402c59.70371,-15.18835 122.98965,9.99122 174.1199,41.36492c36.19239,22.17796 74.95204,49.20304 118.58352,44.45138c30.69964,-3.34101 56.75434,-22.48555 74.43858,-45.02413c8.53763,-10.88215 15.96478,-23.0795 28.39509,-30.41912c7.39132,-4.36984 16.07224,-6.68203 24.75316,-8.33663c79.27458,-15.05046 163.40905,21.67947 241.63286,2.78949c52.83778,-12.72767 94.96472,-49.85004 121.16271,-92.56197s38.42531,-90.93919 48.61076,-138.72098c7.23609,-33.94045 13.24228,-70.60674 -3.39117,-101.82135c-17.60065,-33.04951 -58.34247,-53.08498 -99.28727,-56.83964s-82.00902,6.60778 -119.72982,21.22338c-47.13011,18.30663 -93.32885,43.93167 -144.76956,44.01652c-35.03414,0.06364 -68.44434,-11.87915 -101.93812,-20.99004c-56.00208,-15.22017 -114.23708,-22.78253 -172.26909,-29.76153c-55.56027,-6.68203 -111.66982,-12.89737 -167.56444,-8.9518c-39.54773,2.78948 -74.47441,16.21717 -112.85195,22.43252c-25.01586,4.05164 -50.15112,1.06064 -74.70129,7.84873c-30.23395,8.40026 -61.32765,27.86298 -62.99935,58.51545c-1.57618,29.17818 27.10548,50.47581 39.46415,75.28416z"/>
   <path id="svg_112" stroke-width="2" stroke-miterlimit="10" stroke="#535461" fill="none" d="m611.01,596.76s-14.56,-49.45 2.73,-85.84a78.1,78.1 0 0 0 6.32,-49a131.35,131.35 0 0 0 -6.94,-23"/>
   <path id="svg_113" fill="#6c63ff" d="m623.9,415.94c0,6.06 -11,23.63 -11,23.63s-11,-17.57 -11,-23.63a11,11 0 1 1 21.94,0l0.06,0z"/>
   <path id="svg_115" fill="#6c63ff" d="m641.22,506.87c-5.41,2.73 -26,0.84 -26,0.84s10.75,-17.71 16.16,-20.44a11,11 0 1 1 9.88,19.59l-0.04,0.01z"/>
   <path id="svg_116" fill="#6c63ff" d="m630.85,550.13c-4.87,3.6 -25.53,5.23 -25.53,5.23s7.6,-19.27 12.48,-22.88a11,11 0 0 1 13,17.64l0.05,0.01z"/>
   <path id="svg_117" fill="#6c63ff" d="m596.9,464.55c4.35,4.22 24.6,8.6 24.6,8.6s-5,-20.11 -9.31,-24.34a11,11 0 1 0 -15.29,15.74z"/>
   <path id="svg_118" fill="#6c63ff" d="m585.43,515.31c5.41,2.73 26,0.84 26,0.84s-10.71,-17.71 -16.12,-20.39a11,11 0 0 0 -9.88,19.59l0,-0.04z"/>
   <path id="svg_119" fill="#6c63ff" d="m581.03,566.17c4.87,3.6 25.53,5.23 25.53,5.23s-7.6,-19.27 -12.48,-22.88a11,11 0 1 0 -13,17.64l-0.05,0.01z"/>
   <path id="svg_120" opacity="0.1" fill="#6c63ff" d="m623.9,415.94c0,6.06 -11,23.63 -11,23.63s-11,-17.57 -11,-23.63a11,11 0 1 1 21.94,0l0.06,0z"/>
   <path id="svg_122" opacity="0.1" fill="#6c63ff" d="m641.22,506.87c-5.41,2.73 -26,0.84 -26,0.84s10.75,-17.71 16.16,-20.44a11,11 0 1 1 9.88,19.59l-0.04,0.01z"/>
   <path id="svg_123" opacity="0.1" fill="#6c63ff" d="m630.85,550.13c-4.87,3.6 -25.53,5.23 -25.53,5.23s7.6,-19.27 12.48,-22.88a11,11 0 0 1 13,17.64l0.05,0.01z"/>
   <path id="svg_124" opacity="0.1" fill="#6c63ff" d="m596.9,464.55c4.35,4.22 24.6,8.6 24.6,8.6s-5,-20.11 -9.31,-24.34a11,11 0 1 0 -15.29,15.74z"/>
   <path id="svg_125" opacity="0.1" fill="#6c63ff" d="m585.43,515.31c5.41,2.73 26,0.84 26,0.84s-10.71,-17.71 -16.12,-20.39a11,11 0 0 0 -9.88,19.59l0,-0.04z"/>
   <path id="svg_126" opacity="0.1" fill="#6c63ff" d="m581.03,566.17c4.87,3.6 25.53,5.23 25.53,5.23s-7.6,-19.27 -12.48,-22.88a11,11 0 1 0 -13,17.64l-0.05,0.01z"/>
  </g>
 </g>
</svg>